<svg width="48" height="49" viewBox="0 0 48 49" fill="none" xmlns="http://www.w3.org/2000/svg">
<path fill-rule="evenodd" clip-rule="evenodd" d="M24.1803 0.416016C37.3351 0.416016 47.9993 11.0802 47.9993 24.235C47.9993 37.3898 37.3351 48.054 24.1803 48.054C11.0255 48.054 0.361328 37.3898 0.361328 24.235C0.361328 11.0802 11.0255 0.416016 24.1803 0.416016ZM25.6853 37.6731V25.5048H29.7693L30.3809 20.7626H25.6845V17.7345C25.6845 16.3614 26.0657 15.4262 28.0347 15.4262L30.5458 15.4254V11.1836C30.1118 11.126 28.621 10.9965 26.8864 10.9965C23.2657 10.9965 20.7868 13.2062 20.7868 17.265V20.7618H16.6918V25.504H20.7868V37.6723H25.6845L25.6853 37.6731Z" fill="white"/>
</svg>
