<svg width="48" height="49" viewBox="0 0 48 49" fill="none" xmlns="http://www.w3.org/2000/svg">
<path fill-rule="evenodd" clip-rule="evenodd" d="M23.9245 0.416016C37.0793 0.416016 47.7434 11.0802 47.7434 24.235C47.7434 37.3898 37.0793 48.054 23.9245 48.054C10.7696 48.054 0.105469 37.3898 0.105469 24.235C0.105469 11.0802 10.7696 0.416016 23.9245 0.416016ZM23.9205 12.3516C20.6936 12.3516 20.2887 12.365 19.0213 12.4234C17.7562 12.481 16.8921 12.6822 16.1368 12.9758C15.3556 13.2796 14.6926 13.6861 14.0321 14.3466C13.3716 15.0071 12.9651 15.67 12.6613 16.4513C12.3677 17.2074 12.1665 18.0707 12.1089 19.3358C12.0513 20.6032 12.0371 21.0081 12.0371 24.235C12.0371 27.462 12.0505 27.8668 12.1089 29.1342C12.1665 30.3993 12.3677 31.2634 12.6613 32.0187C12.9651 32.8 13.3716 33.4629 14.0321 34.1234C14.6926 34.784 15.3556 35.1904 16.1368 35.4942C16.8929 35.7878 17.7562 35.989 19.0213 36.0466C20.2887 36.1042 20.6936 36.1185 23.9205 36.1185C27.1475 36.1185 27.5523 36.105 28.8197 36.0466C30.0848 35.989 30.9489 35.7878 31.7042 35.4942C32.4855 35.1904 33.1484 34.784 33.8089 34.1234C34.4695 33.4629 34.8759 32.8 35.1797 32.0187C35.4733 31.2626 35.6745 30.3993 35.7321 29.1342C35.7898 27.8668 35.804 27.462 35.804 24.235C35.804 21.0081 35.7905 20.6032 35.7321 19.3358C35.6745 18.0707 35.4733 17.2066 35.1797 16.4513C34.8759 15.67 34.4695 15.0071 33.8089 14.3466C33.1484 13.6861 32.4855 13.2796 31.7042 12.9758C30.9481 12.6822 30.0848 12.481 28.8197 12.4234C27.5523 12.3658 27.1475 12.3516 23.9205 12.3516ZM23.8029 17.3873C19.9557 17.3873 16.8368 20.5061 16.8368 24.3526C16.8368 28.1998 19.9557 31.3187 23.8029 31.3187C27.6502 31.3187 30.7682 28.1998 30.7682 24.3526C30.7682 20.5053 27.6494 17.3873 23.8029 17.3873ZM23.8029 28.585C21.4662 28.585 19.5713 26.6901 19.5713 24.3534C19.5713 22.0158 21.4662 20.121 23.8029 20.121C26.1405 20.121 28.0353 22.0158 28.0353 24.3534C28.0353 26.6901 26.1405 28.585 23.8029 28.585ZM32.7625 17.1119C32.7625 18.0605 31.993 18.8299 31.0444 18.8299C30.095 18.8299 29.3264 18.0613 29.3264 17.1119C29.3264 16.1625 30.095 15.3938 31.0444 15.3938C31.993 15.3938 32.7625 16.1633 32.7625 17.1119Z" fill="white"/>
</svg>
