<svg width="82" height="82" viewBox="0 0 82 82" fill="none" xmlns="http://www.w3.org/2000/svg">
<path d="M81.5 32.3106C81.5008 30.1506 80.9831 28.022 79.9904 26.1037C78.9978 24.1853 77.5592 22.5333 75.7955 21.2864C74.0318 20.0395 71.9946 19.2341 69.855 18.938C67.7155 18.6419 65.5361 18.8636 63.5 19.5846V14.3106C63.5017 11.7038 62.7482 9.1523 61.3305 6.96471C59.9128 4.77712 57.8917 3.04709 55.5116 1.98383C53.1315 0.920563 50.4944 0.569602 47.919 0.973384C45.3437 1.37717 42.9405 2.5184 41 4.25908C38.7677 2.25777 35.9324 1.05695 32.9417 0.846172C29.951 0.635391 26.9753 1.42666 24.4844 3.09506C21.9934 4.76347 20.129 7.21398 19.1855 10.0598C18.2421 12.9055 18.2733 15.9845 19.2742 18.8106H14C11.3932 18.8088 8.84175 19.5624 6.65415 20.9801C4.46655 22.3978 2.73652 24.4188 1.67325 26.799C0.609994 29.1791 0.259048 31.8162 0.662855 34.3916C1.06666 36.9669 2.20793 39.3701 3.94864 41.3106C1.94738 43.5429 0.746585 46.3782 0.535815 49.3688C0.325045 52.3595 1.1163 55.3352 2.78468 57.8262C4.45306 60.3171 6.90354 62.1815 9.74928 63.125C12.595 64.0685 15.674 64.0374 18.5 63.0365V68.3106C18.4983 70.9174 19.2519 73.4688 20.6696 75.6564C22.0873 77.844 24.1083 79.574 26.4884 80.6373C28.8685 81.7006 31.5057 82.0515 34.081 81.6477C36.6564 81.244 39.0596 80.1027 41 78.3621C43.2324 80.3634 46.0677 81.5642 49.0583 81.775C52.049 81.9857 55.0247 81.1945 57.5157 79.5261C60.0067 77.8577 61.8711 75.4071 62.8145 72.5614C63.758 69.7156 63.7268 66.6366 62.7259 63.8106H68C70.6068 63.8123 73.1583 63.0587 75.3459 61.641C77.5335 60.2234 79.2635 58.2023 80.3268 55.8222C81.39 53.4421 81.741 50.8049 81.3372 48.2296C80.9334 45.6542 79.7921 43.251 78.0514 41.3106C80.2738 38.8399 81.5023 35.6337 81.5 32.3106ZM68 27.8106C69.1935 27.8106 70.3381 28.2847 71.182 29.1286C72.0259 29.9725 72.5 31.1171 72.5 32.3106C72.5 33.504 72.0259 34.6486 71.182 35.4925C70.3381 36.3364 69.1935 36.8106 68 36.8106H63.5V32.3106C63.5013 31.1175 63.9758 29.9736 64.8195 29.13C65.6631 28.2864 66.8069 27.8119 68 27.8106ZM50 9.81056C51.1931 9.81186 52.3369 10.2864 53.1806 11.13C54.0242 11.9736 54.4987 13.1175 54.5 14.3106V32.3106C54.4987 33.5036 54.0242 34.6475 53.1806 35.4911C52.3369 36.3347 51.1931 36.8092 50 36.8106H45.5V14.3106C45.5013 13.1175 45.9759 11.9736 46.8195 11.13C47.6631 10.2864 48.8069 9.81186 50 9.81056ZM27.5 14.3106C27.5 13.1171 27.9741 11.9725 28.818 11.1286C29.662 10.2847 30.8066 9.81056 32 9.81056C33.1935 9.81056 34.3381 10.2847 35.182 11.1286C36.0259 11.9725 36.5 13.1171 36.5 14.3106V18.8106H32C30.807 18.8093 29.6631 18.3347 28.8195 17.4911C27.9759 16.6475 27.5013 15.5036 27.5 14.3106ZM14 27.8106H32C33.1931 27.8119 34.3369 28.2864 35.1806 29.13C36.0242 29.9736 36.4987 31.1175 36.5 32.3106V36.8106H14C12.8066 36.8106 11.662 36.3364 10.818 35.4925C9.97414 34.6486 9.50003 33.504 9.50003 32.3106C9.50003 31.1171 9.97414 29.9725 10.818 29.1286C11.662 28.2847 12.8066 27.8106 14 27.8106ZM14 54.8106C12.8066 54.8106 11.662 54.3364 10.818 53.4925C9.97414 52.6486 9.50003 51.504 9.50003 50.3106C9.50003 49.1171 9.97414 47.9725 10.818 47.1286C11.662 46.2847 12.8066 45.8106 14 45.8106H18.5V50.3106C18.4987 51.5036 18.0242 52.6475 17.1806 53.4911C16.3369 54.3347 15.1931 54.8092 14 54.8106ZM32 72.8106C30.807 72.8092 29.6631 72.3347 28.8195 71.4911C27.9759 70.6475 27.5013 69.5036 27.5 68.3106V50.3106C27.5013 49.1175 27.9759 47.9736 28.8195 47.13C29.6631 46.2864 30.807 45.8119 32 45.8106H36.5V68.3106C36.4987 69.5036 36.0242 70.6475 35.1806 71.4911C34.3369 72.3347 33.1931 72.8092 32 72.8106ZM54.5 68.3106C54.5 69.504 54.0259 70.6486 53.182 71.4925C52.3381 72.3364 51.1935 72.8106 50 72.8106C48.8065 72.8106 47.662 72.3364 46.8181 71.4925C45.9741 70.6486 45.5 69.504 45.5 68.3106V63.8106H50C51.1931 63.8119 52.3369 64.2864 53.1806 65.13C54.0242 65.9736 54.4987 67.1175 54.5 68.3106ZM68 54.8106H50C48.8069 54.8092 47.6631 54.3347 46.8195 53.4911C45.9759 52.6475 45.5013 51.5036 45.5 50.3106V45.8106H68C69.1935 45.8106 70.3381 46.2847 71.182 47.1286C72.0259 47.9725 72.5 49.1171 72.5 50.3106C72.5 51.504 72.0259 52.6486 71.182 53.4925C70.3381 54.3364 69.1935 54.8106 68 54.8106Z" fill="black"/>
</svg>
