<svg width="136" height="59" viewBox="0 0 136 59" fill="none" xmlns="http://www.w3.org/2000/svg">
<path d="M79.5409 4.28247H64.6885V14.294H79.5409V4.28247Z" fill="black"/>
<path d="M49.6165 28.3739C49.6165 24.9485 48.1231 16.3205 38.1644 16.3205C31.1342 16.3205 26.8905 19.7542 23.7616 24.7968V0.541138H0V11.9835H4.72949V45.2082H0V56.4293H25.9635V45.2082H23.763V37.9901C23.763 27.3258 31.0869 25.0446 31.0869 31.5041V45.2082H28.5927V56.4293H54.6633V45.2082H49.6165V28.3739Z" fill="black"/>
<path d="M79.5408 17.0024H55.7778V28.4852H60.5087V45.2068H55.8878V56.4292H84.2703V45.2068H79.5408V17.0024Z" fill="black"/>
<path d="M117.306 17.7359C113.305 17.7359 108.958 18.8313 105.331 20.4403L105.909 15.6148H131.141L131.83 0.54248H93.5977L88.2794 29.3314L102.316 31.2229C104.159 28.9709 106.096 28.3571 107.725 28.3766C111.74 28.4225 113.532 32.6565 113.341 37.013C113.138 41.6479 110.138 46.1894 106.194 46.1894C103.591 46.1894 100.899 44.8268 102.316 40.7251C103.444 34.6329 100.078 32.2585 94.7417 32.2682C86.5647 32.2835 83.9285 41.8413 87.2898 48.0336C90.5398 54.0283 99.5687 58.0814 110.458 58.0814C127.161 58.0814 135.982 47.8541 135.982 37.0673C136.478 23.0848 127.914 17.7359 117.306 17.7359Z" fill="black"/>
</svg>
