<svg xmlns="http://www.w3.org/2000/svg" viewBox="0 0 112.59 62.47"><defs><style>.cls-1{fill-rule:evenodd;}</style></defs><g id="Слой_2" data-name="Слой 2"><g id="Слой_1-2" data-name="Слой 1"><path class="cls-1" d="M6.1,34.91a6.12,6.12,0,0,0,5.43.86,6,6,0,0,0,3.11-2.24A6.1,6.1,0,0,0,15.79,30a6,6,0,0,0-.29-1.87A6.07,6.07,0,0,0,13.26,25a6.12,6.12,0,0,0-5.46-.87,6.1,6.1,0,0,0-3.08,2.25,5.9,5.9,0,0,0-.86,1.72A6,6,0,0,0,3.57,30a5.92,5.92,0,0,0,.29,1.86A6.09,6.09,0,0,0,6.1,34.91ZM19.34,0H0L9.69,22,19.34,0Z"/><path class="cls-1" d="M25.47,52.93a4.69,4.69,0,0,1-.34,1.74,4.54,4.54,0,0,1-2.46,2.45,4.49,4.49,0,0,1-1.73.35H20a4.55,4.55,0,0,1-4.54-4.54V42.64H5V50.4a12.08,12.08,0,0,0,3.53,8.53,12.31,12.31,0,0,0,3.92,2.62,12,12,0,0,0,4.62.92h6.47a12,12,0,0,0,8.53-3.54,12,12,0,0,0,3.54-8.53V.07L25.47.09V52.93Zm77.35-10.29v9.14A4.53,4.53,0,0,1,100,56a4.7,4.7,0,0,1-1.74.35h-.92A4.69,4.69,0,0,1,95.62,56a4.56,4.56,0,0,1-1.47-1,4.7,4.7,0,0,1-1-1.47,4.53,4.53,0,0,1-.34-1.74V.09L82.67.07v61.1h29.91V42.63ZM74.21,33.49a9.78,9.78,0,0,0-2.15-3.17,8.42,8.42,0,0,0-3-1.92,10,10,0,0,0,2.55-1.77,8.72,8.72,0,0,0,1.9-2.56,7.45,7.45,0,0,0,.7-3.14V9.81A9.81,9.81,0,0,0,64.41,0H44.22V61.18h21A9.81,9.81,0,0,0,75,51.37c0-4.69,0-9.38,0-14.07a9.79,9.79,0,0,0-.77-3.81ZM54.07,5.27l5.31,0a4.51,4.51,0,0,1,1.74.35,4.56,4.56,0,0,1,1.47,1,4.41,4.41,0,0,1,1,1.47,4.51,4.51,0,0,1,.35,1.74l0,12.26a3.74,3.74,0,0,1-.64,2.1,3.69,3.69,0,0,1-1.69,1.38,3.74,3.74,0,0,1-1.44.29l-6.11,0Zm10,48a3.75,3.75,0,0,1-.82,1.22,3.85,3.85,0,0,1-1.22.82,4,4,0,0,1-1.44.29l-6.5,0V31.34l5.7,0a4.49,4.49,0,0,1,1.73.35,4.72,4.72,0,0,1,1.48,1,4.85,4.85,0,0,1,1,1.47,4.53,4.53,0,0,1,.34,1.74l0,16a4,4,0,0,1-.28,1.44Z"/></g></g></svg>