<svg width="88" height="65" viewBox="0 0 88 65" fill="none" xmlns="http://www.w3.org/2000/svg">
<path d="M87.3775 26.6083C84.8171 38.7484 82.1644 50.8727 79.4827 62.9838C79.3588 63.5296 78.5757 64.3233 78.0931 64.3286C73.0435 64.4314 67.9887 64.3892 62.6068 64.3892C63.2291 61.3568 63.8013 58.4721 64.421 55.6032C66.7335 44.8343 69.0724 34.0706 71.3902 23.3016C72.3579 18.7742 70.5675 16.546 65.9556 16.5407C63.4928 16.5302 61.0379 16.5566 58.5698 16.5777C58.4459 16.5777 58.3219 16.6541 58.0029 16.7728C54.625 32.5333 51.2261 48.3967 47.8114 64.3207C42.2634 64.3207 36.8209 64.3207 31.1517 64.3207C34.5401 48.4441 37.9126 32.652 41.3273 16.6831C36.436 16.6831 31.7582 16.6831 26.9327 16.6831C23.5338 32.5307 20.1507 48.3466 16.7043 64.4341C11.1274 64.4341 5.56358 64.4341 0.00244141 64.4341C0.00244141 64.1651 0.00244141 63.8988 0.00244141 63.6351C1.19694 58.3455 2.42835 53.0613 3.58066 47.7612C5.68224 38.105 7.7891 28.4462 9.75619 18.7557C10.0252 17.4504 9.80893 15.8446 9.27101 14.6185C7.22217 9.88002 4.94919 5.23123 2.65249 0.321394C3.48046 0.271294 4.10276 0.202737 4.71979 0.202737C25.2161 0.194826 45.7204 0.168456 66.2141 0.218557C73.5472 0.234378 79.7411 2.87124 84.1447 8.93339C88.0314 14.2783 88.7065 20.3141 87.3775 26.6083Z" fill="black"/>
</svg>
