<svg width="166" height="58" viewBox="0 0 166 58" fill="none" xmlns="http://www.w3.org/2000/svg">
<path d="M26.193 0.034668C41.7135 0.034668 45.3382 15.2287 43.1617 28.8037C40.9819 42.3866 32.4532 57.5865 16.9327 57.5865C1.41215 57.5865 -2.2145 42.3868 -0.029731 28.8037C2.15646 15.2287 10.6725 0.034668 26.193 0.034668ZM19.1842 43.5497C24.9659 43.5497 27.0029 32.2653 27.5645 28.8039C28.1254 25.342 29.7134 14.0543 23.9423 14.0543C18.1599 14.0543 16.1274 25.342 15.5677 28.8039C15.0068 32.2653 13.4127 43.5497 19.1842 43.5497ZM51.225 0.988253H69.2187C78.2111 0.988253 88.1024 4.82723 86.1617 16.8547C85.1521 23.115 80.2424 27.9923 73.7948 27.9923L73.7712 28.1459C81.168 28.7403 84.4144 33.2992 83.2138 40.761C82.1078 47.6201 76.4571 56.6205 62.8181 56.6205H42.2744L51.225 0.988253ZM60.7846 44.5915C64.157 44.5915 67.4109 42.9716 68.0235 39.2098C68.6276 35.4452 65.9483 33.8977 62.4267 33.8977H61.2228L59.5002 44.5908H60.7844V44.5915H60.7846ZM63.9432 22.614C67.0856 22.614 70.2192 21.358 70.7968 17.7391C71.3341 14.4117 69.2352 13.0165 66.0814 13.0165H64.5843L63.0466 22.614H63.9432ZM93.2031 0.988253H121.62L119.501 14.1167H106.386L105.14 21.8712H116.916L114.797 34.9989H103.028L101.675 43.4866H114.783L112.663 56.6207H84.2525L93.2031 0.988253ZM127.943 56.6205L131.745 33.0042L122.95 0.988253H138.84L141.332 18.1788H141.48L149.567 0.988253H165.39L147.032 33.004L143.24 56.6202L127.943 56.6205ZM159.256 54.9676C158.145 56.0726 156.811 56.6205 155.237 56.6205C153.672 56.6205 152.336 56.0726 151.235 54.9676C150.139 53.8688 149.592 52.5393 149.592 50.9752C149.592 49.4308 150.144 48.1053 151.25 47.0039C152.352 45.9116 153.683 45.3675 155.237 45.3675C156.812 45.3675 158.146 45.9114 159.256 47.0039C160.363 48.1027 160.914 49.4235 160.914 50.9752C160.914 52.5321 160.362 53.8655 159.256 54.9676ZM151.793 47.5635C150.843 48.5058 150.369 49.6455 150.369 50.9827C150.369 52.3312 150.837 53.4777 151.786 54.4287C152.738 55.3745 153.892 55.848 155.247 55.848C156.605 55.848 157.76 55.3745 158.71 54.4287C159.659 53.4777 160.137 52.3314 160.137 50.9827C160.137 49.6455 159.659 48.5054 158.71 47.5635C157.755 46.6139 156.601 46.1395 155.247 46.1395C153.899 46.1392 152.749 46.6139 151.793 47.5635ZM155.137 47.8563C155.91 47.8563 156.478 47.9298 156.839 48.0814C157.48 48.3463 157.805 48.8702 157.805 49.6455C157.805 50.2011 157.599 50.6089 157.196 50.8666C156.978 51.0043 156.681 51.1052 156.295 51.1648C156.779 51.2432 157.128 51.4436 157.356 51.7735C157.576 52.0994 157.688 52.4229 157.688 52.732V53.1839C157.688 53.3291 157.692 53.4807 157.7 53.6452C157.715 53.8116 157.733 53.9188 157.76 53.9669L157.805 54.0453H156.762C156.756 54.0248 156.751 54.0047 156.746 53.9831C156.744 53.9643 156.737 53.9401 156.731 53.9125L156.707 53.7142V53.228C156.707 52.5107 156.509 52.04 156.117 51.8072C155.884 51.6758 155.481 51.609 154.894 51.609H154.029V54.0446H152.961V47.8563H155.137ZM156.314 48.8601C156.037 48.7074 155.591 48.6304 154.977 48.6304H154.029V50.8363H155.029C155.498 50.8363 155.853 50.7931 156.088 50.7C156.518 50.5345 156.735 50.2152 156.735 49.7515C156.736 49.3048 156.597 49.0115 156.314 48.8601Z" fill="black"/>
</svg>
