<svg xmlns="http://www.w3.org/2000/svg" viewBox="0 0 185.35 92.49"><defs><style>.cls-1{fill-rule:evenodd;}</style></defs><g id="Слой_2" data-name="Слой 2"><g id="Слой_1-2" data-name="Слой 1"><path class="cls-1" d="M185.35,22.42a1,1,0,0,0-.45-.86,1.84,1.84,0,0,0-1-.2h-1.75v4h.49V23.52h.9l1.15,1.85h.58l-1.21-1.85C184.8,23.5,185.35,23.21,185.35,22.42Zm-1.94.72h-.75V21.72h1.15c.5,0,1,.08,1,.7C184.85,23.23,184,23.14,183.41,23.14Zm-120,59.41L40,71.13a1.63,1.63,0,0,1-.76-1.39l.06-6.3A1.47,1.47,0,0,1,40,62.12c2.5-1.59,10.24-5.88,18.24-17.55C68.84,29,58.19,16,41.54,19.51,26.75,22.67,11.7,30.68,5.17,35-.65,38.91.16,43.6,0,47.8c.32,1.78,1,1.62,2.42-.16C13.25,37.62,29.74,30,32.81,28.73S43.16,23.07,51.72,25C60,26.87,58,38.06,55.44,42.79,52.69,48,44.85,55.48,41.3,57.34c-1.35.7-1.86,0-1.86-1.13L40,31.88c0-1.62-.73-2.35-2.35-1.78l-2.58,1.29c-1.78,1-1.7,1.46-1.86,2.75l-.4,28.05a1.35,1.35,0,0,1-.62,1.23l-8.44,4.75c-1.94,1-1.45,2.42,0,2.91l6.79,3.23c1.62.64,2.1,1.13,2.1,2.74l-.24,13.58c6.06-1.21,6.46-4.12,6.63-6.06V80.45c.16-1,.72-1.29,1.53-1.13l19.72,9.53c1.78.81,2.75.49,4-1.77S65.78,83.68,63.36,82.55ZM97.82,48.29c-2.74,1.59-4,4.55-2.93,6.42s4.34,2.18,7.08.6,3.93-4.47,2.85-6.33S100.56,46.71,97.82,48.29Z"/><path class="cls-1" d="M87.71,50.31a38.28,38.28,0,0,0-3,5.37c-.81,1.7-2.51,5.54-4.2,5.54s-2-4.45-2-6.06-1-1.86-1.46-1.78a2.9,2.9,0,0,0-2.26,2.26c-.41,1.7-2.59,9-5,9-1.54,0-2.67-4.44-2.75-5.82s-.73-2.5-2.1-2.5a4,4,0,0,0-2.67,1.05c-.48.57-.56,1.45-3.15.89-2.34-.08-4.61,1.13-7.35,5.74-1.66,2.77-3,7.94-.49,10,2.34,1.94,6.47-1.54,7.68-3s2.26-2.51,2.75-3.31,1-.73,1.21.08,1.61,4,3.39,3.88,4-1.46,6.71-6.15c.49-1,1.21-.89,1.38-.08s1.21,3.48,3,3.48,3.58-2.7,4.52-4.29c.65-1.09,1.62-.56,1.62.49S83,91,83,91c0,1.13.45,1.45,1.25,1.45h3.52A1.3,1.3,0,0,0,89,91l.73-40.21C89.73,49.86,88.64,49.18,87.71,50.31ZM60.23,66.15c-.73,1.21-2.66,4.44-4.36,3.88-.89-.49.29-3.72.89-4.85.89-1.7,3.49-4.4,4.68-3.72S61,64.94,60.23,66.15ZM183.37,41.36a1.6,1.6,0,0,1-2,.24c-2-.81-2.18-4.61-3.23-8.08-1-3.12-3.22-2.93-4-1.5l-2.47,4c-.44.81-1.41,2.67-2.38,2.67-1.13,0-.63-1.62-.57-3.23,0-1.09-.64-2.47-1.77-2.47-1.3,0-2.67,2-3.72,4.25-.74,1.58-2.63,7.63-5,7.63-1.54,0-1.7-4.44-1.78-5.82s-.57-3.07-1.94-3.07a2.6,2.6,0,0,0-2,1.05c-.48.57-.56,1-2.26.81-2.35-.08-6.23,2.1-9,6.71-1.66,2.77-3.65,8.59-1.13,10.67,2.34,1.94,6.54-2.59,7.75-4a40.83,40.83,0,0,0,2.75-3.32c.49-.81,1-.72,1.21.08s1.62,4,3.4,3.88,3.23-.48,5.9-5.17c.48-1,1.37-1.09,1.53-.28s.33,3,2,3c2.91,0,6.21-7.08,7-8.73.73-1.46,1.9-1,2.31,0,.58,1.56,1.09,6.59,4.24,6.59s5.29-3.36,5.94-4.41S184.49,40.38,183.37,41.36Zm-34.26,4.85c-.73,1.21-2.35,3.88-4.05,3.31-.88-.48.22-2.83.81-4,.89-1.7,3.5-4.44,4.69-3.76S149.83,45,149.11,46.21ZM133.49,42s-6.87-5-8.81-7.27a2.08,2.08,0,0,1,.41-3.31c4.85-3.24,12.44-8.25,15.43-16,2.88-7.47-1.61-14-4.85-15-4.43-1.44-13.82,1.46-18.5,10.18-3,5.66-4.45,7.52-4.85,22.88-.08,2.9-.16,6.22-.16,9.86s-.41,13.49-.81,15.35c-1.54,4.36,3.07,1.78,5.17.08s1.94-4.24,1.94-5.33c0-1.38.08-25.62.81-31,.45-3.36,1-9.61,4.52-15S131,4.07,132,5s2.34,3.15,1.61,7.76c-1.13,7.15-9.37,15-11.48,17.37s-1.61,4.53-.4,6.22a58.59,58.59,0,0,0,5.17,5.74,5.37,5.37,0,0,1,1.62,5.58c-1.13,4.36-12.93,16.16-12.93,16.16-2.51,2.67.08,7,1,8.49s2,1,2.75-.24c2.91-5.42,15.43-18.51,15.43-18.51C138.34,48.92,136.81,44.48,133.49,42Z"/></g></g></svg>