<svg width="118" height="61" viewBox="0 0 118 61" fill="none" xmlns="http://www.w3.org/2000/svg">
<g clip-path="url(#clip0_690_2)">
<path fill-rule="evenodd" clip-rule="evenodd" d="M86.8041 3.50551C85.6864 2.67625 84.4245 1.95515 83.0184 1.41433C81.6122 0.873508 80.0979 0.476905 78.4394 0.296631H78.3673C78.2591 0.296631 78.151 0.332686 78.0789 0.404795C78.0068 0.476905 77.9707 0.585069 77.9707 0.693234V5.95724C77.9707 6.02935 78.0068 6.13751 78.0428 6.20962C78.0789 6.28173 78.151 6.31779 78.2591 6.35384C79.2326 6.57017 80.17 6.93072 80.9993 7.32732C81.8286 7.75998 82.5857 8.26475 83.2708 8.87768C83.9558 9.49061 84.5687 10.2117 85.1456 11.0049C85.6864 11.7981 86.1912 12.7355 86.6239 13.7451C87.0565 14.7546 87.4171 15.8723 87.7416 17.0621C88.0661 18.2519 88.3184 19.586 88.4987 20.956C88.715 22.3622 88.8593 23.8765 88.9314 25.4629C89.0395 27.0493 89.0756 28.7439 89.0756 30.5466C89.0756 32.3133 89.0395 34.0079 88.9314 35.6304C88.8232 37.2168 88.679 38.7311 88.4987 40.1372C88.2824 41.5434 88.03 42.8413 87.7416 44.0311C87.4171 45.2209 87.0565 46.3386 86.6239 47.3482C86.1912 48.3577 85.6864 49.2591 85.1456 50.0883C84.6048 50.8816 83.9558 51.6026 83.2708 52.2156C82.5857 52.8285 81.8286 53.3693 80.9993 53.7659C80.17 54.1986 79.2687 54.5231 78.2591 54.7394C78.187 54.7755 78.1149 54.8115 78.0428 54.8836C78.0068 54.9557 77.9707 55.0279 77.9707 55.136V60.4C77.9707 60.5082 78.0068 60.6164 78.0789 60.6885C78.151 60.7606 78.2591 60.7966 78.3673 60.7966H78.4394C80.0979 60.5803 81.6122 60.2197 83.0184 59.6789C84.4245 59.1381 85.6504 58.4531 86.8041 57.5877C87.9218 56.7585 88.9314 55.749 89.8327 54.6313C90.7341 53.5136 91.4913 52.2877 92.1763 50.9537C92.8613 49.5836 93.4382 48.1414 93.9069 46.555C94.3756 45.0046 94.7723 43.3461 95.0607 41.6155C95.3491 39.8848 95.5655 38.0821 95.7097 36.2433C95.8539 34.4045 95.926 32.4936 95.926 30.5106C95.926 28.5636 95.8539 26.6527 95.7097 24.7779C95.5655 22.9391 95.3491 21.1363 95.0607 19.4057C94.7723 17.6751 94.3756 16.0165 93.9069 14.4662C93.4382 12.9158 92.8613 11.4376 92.1763 10.0675C91.4913 8.73346 90.7341 7.47154 89.8327 6.3899C88.9674 5.34431 87.9579 4.33477 86.8041 3.50551Z" fill="black"/>
<path fill-rule="evenodd" clip-rule="evenodd" d="M9.46562 3.50551C10.5833 2.67625 11.8452 1.95515 13.2514 1.41433C14.6575 0.873508 16.1718 0.476905 17.8303 0.296631H17.9025C18.0106 0.296631 18.1188 0.332686 18.1909 0.404795C18.263 0.476905 18.2991 0.585069 18.2991 0.693234V5.95724C18.2991 6.02935 18.263 6.13751 18.2269 6.20962C18.1909 6.28173 18.1188 6.31779 18.0106 6.35384C17.0371 6.57017 16.0997 6.93072 15.2704 7.32732C14.4412 7.75998 13.684 8.26475 12.999 8.87768C12.314 9.49061 11.701 10.2117 11.1241 11.0049C10.5833 11.7981 10.0786 12.7355 9.6459 13.7451C9.21324 14.7546 8.85269 15.8723 8.5282 17.0621C8.2037 18.2519 7.95132 19.586 7.77104 20.956C7.55472 22.3622 7.4105 23.8765 7.33839 25.4629C7.23022 27.0493 7.19417 28.7439 7.19417 30.5466C7.19417 32.3133 7.23022 34.0079 7.33839 35.6304C7.44655 37.2168 7.59077 38.7311 7.77104 40.1372C7.98737 41.5434 8.23976 42.8413 8.5282 44.0311C8.85269 45.2209 9.21324 46.3386 9.6459 47.3482C10.0786 48.3577 10.5833 49.2591 11.1241 50.0883C11.665 50.8816 12.314 51.6026 12.999 52.2156C13.684 52.8285 14.4412 53.3693 15.2704 53.7659C16.0997 54.1986 17.0011 54.5231 18.0106 54.7394C18.0827 54.7755 18.1548 54.8115 18.2269 54.8836C18.263 54.9557 18.2991 55.0279 18.2991 55.136V60.4C18.2991 60.5082 18.263 60.6164 18.1909 60.6885C18.1188 60.7606 18.0106 60.7966 17.9025 60.7966H17.8303C16.1718 60.5803 14.6575 60.2197 13.2514 59.6789C11.8452 59.1381 10.6194 58.4531 9.46562 57.5877C8.34792 56.7585 7.33839 55.749 6.43702 54.6313C5.53565 53.5136 4.77849 52.2877 4.09345 50.9537C3.40841 49.5836 2.83153 48.1414 2.36282 46.555C1.89411 45.0046 1.4975 43.3461 1.20907 41.6155C0.920627 39.8848 0.704298 38.0821 0.560079 36.2433C0.41586 34.4045 0.34375 32.4936 0.34375 30.5466C0.34375 28.5997 0.41586 26.6888 0.560079 24.8139C0.704298 22.9751 0.920627 21.1724 1.20907 19.4417C1.4975 17.7111 1.89411 16.0526 2.36282 14.5022C2.83153 12.9519 3.40841 11.4736 4.09345 10.1035C4.77849 8.76952 5.53565 7.5076 6.43702 6.42595C7.30233 5.34431 8.31187 4.33477 9.46562 3.50551Z" fill="black"/>
<path d="M100.865 25.9677V22.6506C100.865 22.4704 100.937 22.2901 101.046 22.1819L110.744 12.5553C110.997 12.3029 111.177 12.1226 111.249 12.0505C111.357 11.9423 111.537 11.726 111.826 11.4015C112.114 11.041 112.331 10.7525 112.475 10.4641C112.619 10.2117 112.763 9.88722 112.908 9.45456C113.052 9.05795 113.124 8.66135 113.124 8.26475C113.124 7.83209 113.052 7.36338 112.871 6.93072C112.727 6.49806 112.475 6.0654 112.186 5.6688C111.862 5.2722 111.465 4.9477 110.925 4.69532C110.384 4.44294 109.807 4.33477 109.122 4.33477C107.968 4.33477 107.031 4.73137 106.273 5.56064C105.516 6.3899 105.156 7.29127 105.156 8.26475C105.156 8.37291 105.084 8.44502 104.975 8.44502H101.046C100.937 8.44502 100.865 8.37291 100.865 8.26475C100.865 5.99329 101.658 4.11844 103.173 2.60414C104.723 1.05378 106.706 0.296631 109.122 0.296631C111.646 0.296631 113.665 1.05378 115.179 2.56809C116.693 4.08239 117.45 5.95724 117.45 8.26475C117.45 8.98584 117.342 9.67089 117.162 10.3559C116.982 11.041 116.765 11.6178 116.549 12.0505C116.333 12.5192 116.008 12.9879 115.648 13.4927C115.251 13.9975 114.963 14.358 114.746 14.5743C114.53 14.7907 114.242 15.0791 113.881 15.4397L106.995 21.8214C106.958 21.8574 106.922 21.9295 106.922 22.0377C106.922 22.1459 106.995 22.1819 107.067 22.1819H117.198C117.306 22.1819 117.378 22.254 117.378 22.3622V26.0037C117.378 26.1119 117.306 26.184 117.198 26.184H101.046C100.937 26.1479 100.865 26.1119 100.865 25.9677Z" fill="black"/>
<path d="M57.6351 13.5648C57.8875 14.1057 58.1759 14.6465 58.5004 15.1512C59.6902 16.8098 61.1324 17.8554 62.5746 18.8649C63.8726 19.8023 65.2066 20.7397 66.4325 22.1819C68.776 24.9221 70.11 28.2391 70.5066 31.7365C71.3359 38.8032 68.4155 45.9421 63.0433 50.5571C60.5555 52.6843 57.599 54.2707 54.3541 55.1C40.7975 58.6694 26.0871 49.7278 25.5463 34.693C25.33 28.4915 27.4572 22.0738 31.3872 16.954C32.1804 15.9084 33.2981 15.3315 34.6321 15.5118C35.7858 15.6921 36.6872 16.5213 37.228 17.7472C37.6246 18.6486 38.8145 20.5595 39.86 21.6051C39.9322 18.5765 40.3648 15.8363 41.5186 13.0601C42.6363 10.2838 44.3308 7.61579 46.386 5.4525C47.9003 3.86608 49.6309 2.45994 51.5418 1.34224C52.335 0.873532 53.2724 0.729313 54.1017 0.909587C54.5344 0.981697 54.8949 1.16197 55.2555 1.3783C55.616 1.63068 55.9044 1.91912 56.1568 2.31573C56.5534 3.00077 56.7337 3.90214 56.4813 4.98378C56.4092 5.38039 56.3371 5.77699 56.301 6.17359C56.265 6.60625 56.2289 7.00285 56.2289 7.43551C56.2289 8.15661 56.301 8.8777 56.4092 9.63486C56.5174 10.356 56.7337 11.041 56.95 11.726V11.7621C57.2024 12.4471 57.3827 13.024 57.6351 13.5648ZM58.7167 45.5455C60.4473 44.0672 61.8174 42.1924 62.7188 40.0651C63.6562 37.8658 64.0528 35.4141 63.8365 33.0344C63.6562 30.8351 62.9351 28.7079 61.6011 26.9772C60.2671 25.2466 58.8609 24.201 57.4548 23.1915C55.8684 22.0377 54.282 20.92 52.8398 18.8288C51.5418 16.954 50.5323 14.3941 49.9915 12.1947C49.9554 12.0505 49.9193 11.8703 49.8833 11.726C49.7391 11.9063 49.6309 12.0866 49.4867 12.2669C48.7656 13.3124 48.1527 14.4662 47.6839 15.656C47.4676 16.1608 47.2873 16.7016 47.1431 17.2785C46.9628 17.9996 46.7826 18.7207 46.7105 19.4418C46.6023 20.1629 46.5662 20.92 46.5662 21.6411C46.5662 22.7588 46.6744 23.8765 46.8907 24.9942C47.1071 26.0759 47.4676 27.1575 47.9003 28.167C48.0445 28.4915 48.1166 28.8521 48.1527 29.1766C48.1887 29.5011 48.1527 29.8616 48.0805 30.1861C48.0084 30.5106 47.9003 30.8351 47.72 31.1235C47.2152 32.0249 46.3139 32.6378 45.2683 32.7821C44.9438 32.8181 44.5832 32.8181 44.2587 32.7821C43.9342 32.7099 43.6097 32.6018 43.2853 32.4576C40.1845 30.9793 36.7593 27.8425 34.3076 24.6337C32.4328 27.6262 31.6395 33.2508 32.5049 36.7841C34.9926 47.1319 44.7635 50.7013 52.6956 48.6101C54.967 48.1054 57.0221 47.0237 58.7167 45.5455Z" fill="black"/>
</g>
<defs>
<clipPath id="clip0_690_2">
<rect width="117.106" height="60.5" fill="white" transform="translate(0.34375 0.296631)"/>
</clipPath>
</defs>
</svg>
