<svg width="118" height="62" viewBox="0 0 118 62" fill="none" xmlns="http://www.w3.org/2000/svg">
<g clip-path="url(#clip0_674_11)">
<path fill-rule="evenodd" clip-rule="evenodd" d="M86.8041 4.17446C85.6864 3.34519 84.4245 2.6241 83.0184 2.08328C81.6122 1.54245 80.0979 1.14585 78.4394 0.965576H78.3673C78.2591 0.965576 78.151 1.00163 78.0789 1.07374C78.0068 1.14585 77.9707 1.25401 77.9707 1.36218V6.62618C77.9707 6.69829 78.0068 6.80646 78.0428 6.87857C78.0789 6.95068 78.151 6.98673 78.2591 7.02279C79.2326 7.23912 80.17 7.59966 80.9993 7.99627C81.8286 8.42893 82.5857 8.93369 83.2708 9.54662C83.9558 10.1596 84.5687 10.8807 85.1456 11.6739C85.6864 12.4671 86.1912 13.4045 86.6239 14.414C87.0565 15.4236 87.4171 16.5413 87.7416 17.7311C88.0661 18.9209 88.3184 20.2549 88.4987 21.625C88.715 23.0311 88.8593 24.5454 88.9314 26.1318C89.0395 27.7183 89.0756 29.4128 89.0756 31.2156C89.0756 32.9823 89.0395 34.6768 88.9314 36.2993C88.8232 37.8857 88.679 39.4 88.4987 40.8062C88.2824 42.2123 88.03 43.5103 87.7416 44.7001C87.4171 45.8899 87.0565 47.0076 86.6239 48.0171C86.1912 49.0267 85.6864 49.928 85.1456 50.7573C84.6048 51.5505 83.9558 52.2716 83.2708 52.8845C82.5857 53.4975 81.8286 54.0383 80.9993 54.4349C80.17 54.8675 79.2687 55.192 78.2591 55.4084C78.187 55.4444 78.1149 55.4805 78.0428 55.5526C78.0068 55.6247 77.9707 55.6968 77.9707 55.805V61.069C77.9707 61.1771 78.0068 61.2853 78.0789 61.3574C78.151 61.4295 78.2591 61.4656 78.3673 61.4656H78.4394C80.0979 61.2492 81.6122 60.8887 83.0184 60.3479C84.4245 59.8071 85.6504 59.122 86.8041 58.2567C87.9218 57.4274 88.9314 56.4179 89.8327 55.3002C90.7341 54.1825 91.4913 52.9566 92.1763 51.6226C92.8613 50.2525 93.4382 48.8103 93.9069 47.2239C94.3756 45.6736 94.7723 44.015 95.0607 42.2844C95.3491 40.5538 95.5655 38.751 95.7097 36.9122C95.8539 35.0734 95.926 33.1625 95.926 31.1795C95.926 29.2326 95.8539 27.3217 95.7097 25.4468C95.5655 23.608 95.3491 21.8053 95.0607 20.0746C94.7723 18.344 94.3756 16.6855 93.9069 15.1351C93.4382 13.5848 92.8613 12.1065 92.1763 10.7364C91.4913 9.40241 90.7341 8.14049 89.8327 7.05884C88.9674 6.01325 87.9579 5.00372 86.8041 4.17446Z" fill="black"/>
<path fill-rule="evenodd" clip-rule="evenodd" d="M9.46562 4.17446C10.5833 3.34519 11.8452 2.6241 13.2514 2.08328C14.6575 1.54245 16.1718 1.14585 17.8303 0.965576H17.9025C18.0106 0.965576 18.1188 1.00163 18.1909 1.07374C18.263 1.14585 18.2991 1.25401 18.2991 1.36218V6.62618C18.2991 6.69829 18.263 6.80646 18.2269 6.87857C18.1909 6.95068 18.1188 6.98673 18.0106 7.02279C17.0371 7.23912 16.0997 7.59966 15.2704 7.99627C14.4412 8.42893 13.684 8.93369 12.999 9.54662C12.314 10.1596 11.701 10.8807 11.1241 11.6739C10.5833 12.4671 10.0786 13.4045 9.6459 14.414C9.21324 15.4236 8.85269 16.5413 8.5282 17.7311C8.2037 18.9209 7.95132 20.2549 7.77104 21.625C7.55472 23.0311 7.4105 24.5454 7.33839 26.1318C7.23022 27.7183 7.19417 29.4128 7.19417 31.2156C7.19417 32.9823 7.23022 34.6768 7.33839 36.2993C7.44655 37.8857 7.59077 39.4 7.77104 40.8062C7.98737 42.2123 8.23976 43.5103 8.5282 44.7001C8.85269 45.8899 9.21324 47.0076 9.6459 48.0171C10.0786 49.0267 10.5833 49.928 11.1241 50.7573C11.665 51.5505 12.314 52.2716 12.999 52.8845C13.684 53.4975 14.4412 54.0383 15.2704 54.4349C16.0997 54.8675 17.0011 55.192 18.0106 55.4084C18.0827 55.4444 18.1548 55.4805 18.2269 55.5526C18.263 55.6247 18.2991 55.6968 18.2991 55.805V61.069C18.2991 61.1771 18.263 61.2853 18.1909 61.3574C18.1188 61.4295 18.0106 61.4656 17.9025 61.4656H17.8303C16.1718 61.2492 14.6575 60.8887 13.2514 60.3479C11.8452 59.8071 10.6194 59.122 9.46562 58.2567C8.34792 57.4274 7.33839 56.4179 6.43702 55.3002C5.53565 54.1825 4.77849 52.9566 4.09345 51.6226C3.40841 50.2525 2.83153 48.8103 2.36282 47.2239C1.89411 45.6736 1.4975 44.015 1.20907 42.2844C0.920627 40.5538 0.704298 38.751 0.560079 36.9122C0.41586 35.0734 0.34375 33.1625 0.34375 31.2156C0.34375 29.2686 0.41586 27.3577 0.560079 25.4829C0.704298 23.6441 0.920627 21.8413 1.20907 20.1107C1.4975 18.3801 1.89411 16.7215 2.36282 15.1712C2.83153 13.6208 3.40841 12.1426 4.09345 10.7725C4.77849 9.43846 5.53565 8.17654 6.43702 7.0949C7.30233 6.01325 8.31187 5.00372 9.46562 4.17446Z" fill="black"/>
<path d="M100.865 26.6366V23.3196C100.865 23.1393 100.937 22.959 101.046 22.8509L110.744 13.2242C110.997 12.9718 111.177 12.7916 111.249 12.7194C111.357 12.6113 111.537 12.395 111.826 12.0705C112.114 11.7099 112.331 11.4215 112.475 11.133C112.619 10.8807 112.763 10.5562 112.908 10.1235C113.052 9.7269 113.124 9.3303 113.124 8.93369C113.124 8.50104 113.052 8.03232 112.871 7.59966C112.727 7.16701 112.475 6.73435 112.186 6.33775C111.862 5.94114 111.465 5.61665 110.925 5.36427C110.384 5.11188 109.807 5.00372 109.122 5.00372C107.968 5.00372 107.031 5.40032 106.273 6.22958C105.516 7.05884 105.156 7.96021 105.156 8.93369C105.156 9.04186 105.084 9.11397 104.975 9.11397H101.046C100.937 9.11397 100.865 9.04186 100.865 8.93369C100.865 6.66224 101.658 4.78739 103.173 3.27309C104.723 1.72273 106.706 0.965576 109.122 0.965576C111.646 0.965576 113.665 1.72273 115.179 3.23703C116.693 4.75133 117.45 6.62618 117.45 8.93369C117.45 9.65479 117.342 10.3398 117.162 11.0249C116.982 11.7099 116.765 12.2868 116.549 12.7194C116.333 13.1882 116.008 13.6569 115.648 14.1616C115.251 14.6664 114.963 15.027 114.746 15.2433C114.53 15.4596 114.242 15.7481 113.881 16.1086L106.995 22.4903C106.958 22.5264 106.922 22.5985 106.922 22.7066C106.922 22.8148 106.995 22.8509 107.067 22.8509H117.198C117.306 22.8509 117.378 22.923 117.378 23.0311V26.6727C117.378 26.7808 117.306 26.8529 117.198 26.8529H101.046C100.937 26.8169 100.865 26.7808 100.865 26.6366Z" fill="black"/>
<path d="M57.8161 21.5168C58.2848 21.9855 58.9338 22.2379 59.5828 22.2379C60.2318 22.2379 60.8447 21.9855 61.3495 21.5168C61.8182 21.048 62.0706 20.3991 62.0706 19.7501C62.0706 19.1011 61.8182 18.4882 61.3495 17.9834C60.8808 17.5147 60.2318 17.2623 59.5828 17.2623C58.9338 17.2623 58.3209 17.5147 57.8161 17.9834C57.3474 18.4521 57.095 19.1011 57.095 19.7501C57.095 20.3991 57.3474 21.048 57.8161 21.5168ZM66.5774 49.6756C64.6305 51.6225 62.1066 52.56 59.5828 52.56C58.6454 52.56 57.708 52.4157 56.8066 52.1634C56.3379 52.9926 55.797 53.7498 55.112 54.3988C53.3093 56.2015 50.8575 57.2831 48.1174 57.2831C45.3772 57.2831 42.9255 56.1654 41.1227 54.3988C40.4737 53.7498 39.8969 52.9926 39.4282 52.1634C38.5268 52.4157 37.5894 52.56 36.6519 52.56C34.1281 52.56 31.6043 51.5865 29.6573 49.6756C27.7103 47.7286 26.7729 45.2048 26.7729 42.6809C26.7729 41.7435 26.9171 40.8061 27.1695 39.9047C26.3403 39.436 25.5831 38.8952 24.8981 38.2101C23.0953 36.4074 22.0137 33.9557 22.0137 31.2155C22.0137 28.4753 23.1314 26.0236 24.8981 24.2209C25.547 23.5719 26.3042 22.995 27.1335 22.5263C26.8811 21.6249 26.7369 20.6875 26.7369 19.7501C26.7369 17.2262 27.7103 14.7024 29.6212 12.7554C31.5682 10.8085 34.092 9.87105 36.6159 9.87105C37.5533 9.87105 38.4907 10.0153 39.3921 10.2677C39.8608 9.4384 40.4016 8.68124 41.0867 7.9962C42.8894 6.19346 45.3411 5.11182 48.0813 5.11182C50.8215 5.11182 53.2732 6.22952 55.076 7.9962C55.7249 8.64519 56.3018 9.40234 56.7705 10.2316C57.6719 9.97922 58.6093 9.835 59.5467 9.835C62.0706 9.835 64.5944 10.8085 66.5414 12.7194C68.4883 14.6663 69.4258 17.1902 69.4258 19.714C69.4258 20.6514 69.2815 21.5889 69.0292 22.4902C69.8584 22.959 70.6156 23.4998 71.2646 24.1848C73.0673 25.9876 74.149 28.4393 74.149 31.1795C74.149 33.9196 73.0313 36.3713 71.2646 38.1741C70.6156 38.8231 69.8584 39.4 69.0292 39.8687C69.2815 40.77 69.4258 41.7075 69.4258 42.6449C69.4618 45.2048 68.5244 47.7286 66.5774 49.6756ZM59.5828 45.1687C60.2318 45.1687 60.8447 44.9163 61.3495 44.4476C61.8182 43.9789 62.0706 43.3299 62.0706 42.6809C62.0706 42.032 61.8182 41.419 61.3495 40.9143C60.8808 40.4455 60.2318 40.1932 59.5828 40.1932C58.9338 40.1932 58.3209 40.4455 57.8161 40.9143C57.3474 41.383 57.095 42.032 57.095 42.6809C57.095 43.3299 57.3474 43.9429 57.8161 44.4476C58.3209 44.9163 58.9338 45.1687 59.5828 45.1687ZM66.1087 32.9822C66.5414 32.5495 66.8298 31.9006 66.8298 31.2155C66.8298 30.5305 66.5414 29.9175 66.1087 29.4488C65.6761 29.0162 65.0271 28.7277 64.342 28.7277C63.657 28.7277 63.0441 29.0162 62.5754 29.4488C62.1427 29.8815 61.8543 30.5305 61.8543 31.2155C61.8543 31.9006 62.1427 32.5135 62.5754 32.9822C63.008 33.4149 63.657 33.7033 64.342 33.7033C65.0271 33.7033 65.64 33.4149 66.1087 32.9822ZM49.8841 13.2602C49.4514 12.8275 48.8024 12.5391 48.1174 12.5391C47.4323 12.5391 46.8194 12.8275 46.3507 13.2602C45.918 13.6929 45.6296 14.3419 45.6296 15.0269C45.6296 15.7119 45.918 16.3249 46.3507 16.7936C46.7833 17.2262 47.4323 17.5147 48.1174 17.5147C48.8024 17.5147 49.4153 17.2262 49.8841 16.7936C50.3167 16.3609 50.6051 15.7119 50.6051 15.0269C50.6051 14.3419 50.3528 13.7289 49.8841 13.2602ZM38.4186 21.5168C38.8873 21.048 39.1397 20.3991 39.1397 19.7501C39.1397 19.1011 38.8873 18.4882 38.4186 17.9834C37.9138 17.4786 37.3009 17.2262 36.6519 17.2262C36.0029 17.2262 35.39 17.4786 34.8852 17.9473C34.4165 18.416 34.1642 19.065 34.1642 19.714C34.1642 20.363 34.4165 20.9759 34.8852 21.4807C35.354 21.9494 36.0029 22.2018 36.6519 22.2018C37.3009 22.2018 37.9499 22.0215 38.4186 21.5168ZM38.4186 40.9143C37.9499 40.4455 37.3009 40.1932 36.6519 40.1932C36.0029 40.1932 35.39 40.4455 34.8852 40.9143C34.3805 41.419 34.1281 42.032 34.1281 42.6809C34.1281 43.3299 34.3805 43.9429 34.8492 44.4476C35.3179 44.9163 35.9669 45.1687 36.6159 45.1687C37.2649 45.1687 37.8778 44.9163 38.3826 44.4476C38.8513 43.9789 39.1037 43.3299 39.1037 42.6809C39.1758 42.032 38.9234 41.419 38.4186 40.9143ZM33.6954 32.9822C34.1281 32.5495 34.4165 31.9006 34.4165 31.2155C34.4165 30.5305 34.1281 29.9175 33.6954 29.4488C33.2628 29.0162 32.6138 28.7277 31.9287 28.7277C31.2437 28.7277 30.6308 29.0162 30.1621 29.4488C29.7294 29.8815 29.441 30.5305 29.441 31.2155C29.441 31.9006 29.7294 32.5135 30.1621 32.9822C30.5947 33.4149 31.2437 33.7033 31.9287 33.7033C32.6138 33.7033 33.2267 33.4149 33.6954 32.9822ZM49.8841 45.6735C49.4514 45.2408 48.8024 44.9524 48.1174 44.9524C47.4323 44.9524 46.8194 45.2408 46.3507 45.6735C45.918 46.1062 45.6296 46.7551 45.6296 47.4402C45.6296 48.1252 45.918 48.7382 46.3507 49.2069C46.7833 49.6395 47.4323 49.928 48.1174 49.928C48.8024 49.928 49.4153 49.6395 49.8841 49.2069C50.3167 48.7742 50.6051 48.1252 50.6051 47.4402C50.6051 46.7551 50.3528 46.1062 49.8841 45.6735ZM52.5882 26.7447C51.4344 25.591 49.8841 24.9059 48.1174 24.9059C46.3867 24.9059 44.8003 25.627 43.6466 26.7447C42.4928 27.8985 41.8078 29.4488 41.8078 31.2155C41.8078 32.9461 42.5289 34.5326 43.6466 35.6863C44.8003 36.8401 46.3507 37.5251 48.1174 37.5251C49.848 37.5251 51.4344 36.804 52.5882 35.6863C53.7419 34.5326 54.427 32.9822 54.427 31.2155C54.427 29.4849 53.7419 27.8985 52.5882 26.7447Z" fill="black"/>
</g>
<defs>
<clipPath id="clip0_674_11">
<rect width="117.106" height="60.5" fill="white" transform="translate(0.34375 0.965576)"/>
</clipPath>
</defs>
</svg>
