<svg width="118" height="61" viewBox="0 0 118 61" fill="none" xmlns="http://www.w3.org/2000/svg">
<g clip-path="url(#clip0_690_10)">
<path fill-rule="evenodd" clip-rule="evenodd" d="M86.8032 3.70351C85.6855 2.87425 84.4236 2.15315 83.0175 1.61233C81.6113 1.07151 80.097 0.674903 78.4385 0.494629H78.3664C78.2582 0.494629 78.1501 0.530684 78.078 0.602793C78.0058 0.674903 77.9698 0.783068 77.9698 0.891232V6.15524C77.9698 6.22735 78.0058 6.33551 78.0419 6.40762C78.078 6.47973 78.1501 6.51578 78.2582 6.55184C79.2317 6.76817 80.1691 7.12872 80.9984 7.52532C81.8277 7.95798 82.5848 8.46275 83.2699 9.07568C83.9549 9.68861 84.5678 10.4097 85.1447 11.2029C85.6855 11.9961 86.1903 12.9335 86.6229 13.9431C87.0556 14.9526 87.4162 16.0703 87.7406 17.2601C88.0651 18.4499 88.3175 19.784 88.4978 21.154C88.7141 22.5602 88.8583 24.0745 88.9305 25.6609C89.0386 27.2473 89.0747 28.9419 89.0747 30.7446C89.0747 32.5113 89.0386 34.2059 88.9305 35.8284C88.8223 37.4148 88.6781 38.9291 88.4978 40.3352C88.2815 41.7413 88.0291 43.0393 87.7406 44.2291C87.4162 45.4189 87.0556 46.5366 86.6229 47.5462C86.1903 48.5557 85.6855 49.4571 85.1447 50.2863C84.6039 51.0796 83.9549 51.8006 83.2699 52.4136C82.5848 53.0265 81.8277 53.5673 80.9984 53.9639C80.1691 54.3966 79.2678 54.7211 78.2582 54.9374C78.1861 54.9735 78.114 55.0095 78.0419 55.0816C78.0058 55.1537 77.9698 55.2259 77.9698 55.334V60.598C77.9698 60.7062 78.0058 60.8144 78.078 60.8865C78.1501 60.9586 78.2582 60.9946 78.3664 60.9946H78.4385C80.097 60.7783 81.6113 60.4177 83.0175 59.8769C84.4236 59.3361 85.6495 58.6511 86.8032 57.7857C87.9209 56.9565 88.9305 55.9469 89.8318 54.8293C90.7332 53.7116 91.4903 52.4857 92.1754 51.1517C92.8604 49.7816 93.4373 48.3394 93.906 46.753C94.3747 45.2026 94.7713 43.5441 95.0598 41.8135C95.3482 40.0828 95.5645 38.2801 95.7088 36.4413C95.853 34.6025 95.9251 32.6916 95.9251 30.7086C95.9251 28.7616 95.853 26.8507 95.7088 24.9759C95.5645 23.1371 95.3482 21.3343 95.0598 19.6037C94.7713 17.8731 94.3747 16.2145 93.906 14.6642C93.4373 13.1138 92.8604 11.6356 92.1754 10.2655C91.4903 8.93146 90.7332 7.66954 89.8318 6.58789C88.9665 5.5423 87.957 4.53277 86.8032 3.70351ZM9.46562 3.70351C10.5833 2.87425 11.8452 2.15315 13.2514 1.61233C14.6575 1.07151 16.1718 0.674903 17.8303 0.494629H17.9025C18.0106 0.494629 18.1188 0.530684 18.1909 0.602793C18.263 0.674903 18.2991 0.783068 18.2991 0.891232V6.15524C18.2991 6.22735 18.263 6.33551 18.2269 6.40762C18.1909 6.47973 18.1188 6.51578 18.0106 6.55184C17.0371 6.76817 16.0997 7.12872 15.2704 7.52532C14.4412 7.95798 13.684 8.46275 12.999 9.07568C12.314 9.68861 11.701 10.4097 11.1241 11.2029C10.5833 11.9961 10.0786 12.9335 9.6459 13.9431C9.21324 14.9526 8.85269 16.0703 8.5282 17.2601C8.2037 18.4499 7.95132 19.784 7.77104 21.154C7.55472 22.5602 7.4105 24.0745 7.33839 25.6609C7.23022 27.2473 7.19417 28.9419 7.19417 30.7446C7.19417 32.5113 7.23022 34.2059 7.33839 35.8284C7.44655 37.4148 7.59077 38.9291 7.77104 40.3352C7.98737 41.7413 8.23976 43.0393 8.5282 44.2291C8.85269 45.4189 9.21324 46.5366 9.6459 47.5462C10.0786 48.5557 10.5833 49.4571 11.1241 50.2863C11.665 51.0796 12.314 51.8006 12.999 52.4136C13.684 53.0265 14.4412 53.5673 15.2704 53.9639C16.0997 54.3966 17.0011 54.7211 18.0106 54.9374C18.0827 54.9735 18.1548 55.0095 18.2269 55.0816C18.263 55.1537 18.2991 55.2259 18.2991 55.334V60.598C18.2991 60.7062 18.263 60.8144 18.1909 60.8865C18.1188 60.9586 18.0106 60.9946 17.9025 60.9946H17.8303C16.1718 60.7783 14.6575 60.4177 13.2514 59.8769C11.8452 59.3361 10.6194 58.6511 9.46562 57.7857C8.34792 56.9565 7.33839 55.9469 6.43702 54.8293C5.53565 53.7116 4.77849 52.4857 4.09345 51.1517C3.40841 49.7816 2.83153 48.3394 2.36282 46.753C1.89411 45.2026 1.4975 43.5441 1.20907 41.8135C0.920627 40.0828 0.704298 38.2801 0.560079 36.4413C0.41586 34.6025 0.34375 32.6916 0.34375 30.7446C0.34375 28.7977 0.41586 26.8868 0.560079 25.0119C0.704298 23.1731 0.920627 21.3704 1.20907 19.6397C1.4975 17.9091 1.89411 16.2506 2.36282 14.7002C2.83153 13.1499 3.40841 11.6716 4.09345 10.3015C4.77849 8.96751 5.53565 7.70559 6.43702 6.62395C7.30233 5.5423 8.31187 4.53277 9.46562 3.70351ZM72.0568 34.1698V27.3194C72.0568 27.1752 71.9126 27.031 71.7684 27.031H24.5005C24.3563 27.031 24.212 27.1752 24.212 27.3194V34.1698C24.212 34.3141 24.3563 34.4583 24.5005 34.4583H71.7684C71.9126 34.4583 72.0568 34.3141 72.0568 34.1698Z" fill="#1A1A1A"/>
<path d="M100.865 26.1657V22.8486C100.865 22.6683 100.937 22.4881 101.046 22.3799L110.744 12.7533C110.997 12.5009 111.177 12.3206 111.249 12.2485C111.357 12.1403 111.537 11.924 111.826 11.5995C112.114 11.239 112.331 10.9505 112.475 10.6621C112.619 10.4097 112.763 10.0852 112.908 9.65256C113.052 9.25595 113.124 8.85935 113.124 8.46275C113.124 8.03009 113.052 7.56138 112.871 7.12872C112.727 6.69606 112.475 6.2634 112.186 5.8668C111.862 5.4702 111.465 5.1457 110.925 4.89332C110.384 4.64093 109.807 4.53277 109.122 4.53277C107.968 4.53277 107.031 4.92937 106.273 5.75863C105.516 6.58789 105.156 7.48927 105.156 8.46275C105.156 8.57091 105.084 8.64302 104.975 8.64302H101.046C100.937 8.64302 100.865 8.57091 100.865 8.46275C100.865 6.19129 101.658 4.31644 103.173 2.80214C104.723 1.25178 106.706 0.494629 109.122 0.494629C111.646 0.494629 113.665 1.25178 115.179 2.76608C116.693 4.28039 117.45 6.15524 117.45 8.46275C117.45 9.18384 117.342 9.86888 117.162 10.5539C116.982 11.239 116.765 11.8158 116.549 12.2485C116.333 12.7172 116.008 13.1859 115.648 13.6907C115.251 14.1955 114.963 14.556 114.746 14.7723C114.53 14.9887 114.242 15.2771 113.881 15.6377L106.995 22.0194C106.958 22.0554 106.922 22.1275 106.922 22.2357C106.922 22.3439 106.995 22.3799 107.067 22.3799H117.198C117.306 22.3799 117.378 22.452 117.378 22.5602V26.2017C117.378 26.3099 117.306 26.382 117.198 26.382H101.046C100.937 26.3459 100.865 26.3099 100.865 26.1657Z" fill="#1A1A1A"/>
<path d="M48.1171 7.41724C55.5804 7.41724 62.3948 9.94107 67.3704 14.0153C72.5262 18.2697 75.7351 24.1827 75.7351 30.7447C75.7351 37.3067 72.5262 43.2197 67.3704 47.4742C62.3948 51.5483 55.5804 54.0722 48.1171 54.0722C40.6537 54.0722 33.8394 51.5483 28.8638 47.4742C23.708 43.2557 20.5352 37.3427 20.5352 30.7447C20.5352 24.1827 23.744 18.2697 28.8999 14.0153C33.8394 9.94107 40.6537 7.41724 48.1171 7.41724ZM62.6832 19.7119C59.0057 16.6833 53.8498 14.8085 48.1171 14.8085C42.3844 14.8085 37.2285 16.6833 33.5509 19.7119C30.0536 22.5603 27.8903 26.4902 27.8903 30.7447C27.8903 34.9992 30.0536 38.9292 33.5509 41.7775C37.2285 44.8061 42.3844 46.6809 48.1171 46.6809C53.8498 46.6809 59.0057 44.8061 62.6832 41.7775C66.1806 38.9292 68.3439 34.9992 68.3439 30.7447C68.3439 26.4902 66.1806 22.5603 62.6832 19.7119Z" fill="#1A1A1A"/>
<path d="M48.1166 7.41724C52.1187 7.41724 55.4718 10.4458 57.6712 15.3854C59.4379 19.3874 60.5556 24.8317 60.5556 30.7447C60.5556 36.6577 59.4739 42.138 57.6712 46.1041C55.4718 51.0075 52.1187 54.0722 48.1166 54.0722C44.1146 54.0722 40.7615 51.0436 38.5621 46.1041C36.7954 42.102 35.6777 36.6577 35.6777 30.7447C35.6777 24.8317 36.7594 19.3514 38.5621 15.3854C40.7615 10.4458 44.1146 7.41724 48.1166 7.41724ZM50.8929 18.3418C49.9194 16.1425 48.9099 14.8085 48.1166 14.8085C47.3234 14.8085 46.3139 16.1786 45.3404 18.3418C43.9703 21.4426 43.105 25.8413 43.105 30.7447C43.105 35.6482 43.9703 40.0469 45.3404 43.1476C46.3139 45.3469 47.3234 46.6809 48.1166 46.6809C48.9099 46.6809 49.9194 45.3109 50.8929 43.1476C52.263 40.0469 53.1283 35.6482 53.1283 30.7447C53.1283 25.8413 52.299 21.4786 50.8929 18.3418Z" fill="#1A1A1A"/>
</g>
<defs>
<clipPath id="clip0_690_10">
<rect width="117.106" height="60.5" fill="white" transform="translate(0.34375 0.494629)"/>
</clipPath>
</defs>
</svg>
