<svg width="26" height="83" viewBox="0 0 26 83" fill="none" xmlns="http://www.w3.org/2000/svg">
<path fill-rule="evenodd" clip-rule="evenodd" d="M13.2282 5.23796C14.7347 4.10809 16.4672 3.12887 18.3503 2.37563C20.2334 1.62239 22.2671 1.09511 24.5269 0.869141H24.6022C24.7528 0.869141 24.9035 0.944465 24.9788 1.01979C25.0541 1.09511 25.1295 1.24576 25.1295 1.39641V8.55223C25.1295 8.70288 25.0541 8.77821 24.9788 8.85353C24.9035 8.92886 24.8282 9.00418 24.6775 9.00418C23.3217 9.30548 22.1165 9.75743 20.9866 10.36C19.8568 10.9626 18.8022 11.6405 17.8983 12.4691C16.9944 13.2977 16.0905 14.2769 15.3373 15.4068C14.5841 16.5366 13.9061 17.7418 13.3035 19.0977C12.7009 20.4535 12.1737 21.96 11.797 23.6171C11.3451 25.2743 11.0438 27.0067 10.7425 28.8898C10.4412 30.7729 10.2906 32.8067 10.1399 34.9911C9.98926 37.1755 9.98926 39.4353 9.98926 41.8456C9.98926 44.256 10.0646 46.5158 10.1399 48.7002C10.2906 50.8846 10.4412 52.9183 10.7425 54.8014C11.0438 56.6846 11.3451 58.4923 11.797 60.0742C12.249 61.7313 12.7009 63.2378 13.3035 64.5936C13.9061 65.9495 14.5841 67.1547 15.3373 68.2845C16.0905 69.4144 16.9191 70.3183 17.8983 71.2222C18.8022 72.0508 19.8568 72.7287 20.9866 73.3313C22.1165 73.9339 23.3217 74.3858 24.6775 74.6871C24.8282 74.6871 24.9035 74.7624 24.9788 74.8378C25.0541 74.9131 25.1295 75.0637 25.1295 75.139V82.2949C25.1295 82.4455 25.0541 82.5962 24.9788 82.6715C24.9035 82.7468 24.7528 82.8221 24.6022 82.8221H24.5269C22.2671 82.5209 20.2334 82.0689 18.3503 81.3157C16.4672 80.5624 14.7347 79.6585 13.2282 78.4533C11.7217 77.3235 10.2906 75.9676 9.08536 74.4611C7.88017 72.9546 6.82563 71.2975 5.92174 69.4144C5.01784 67.6066 4.18928 65.5728 3.58668 63.4638C2.90876 61.3547 2.45681 59.0949 2.00487 56.7599C1.62824 54.4248 1.32695 52.0144 1.10097 49.4534C0.950324 47.1184 0.875 44.5573 0.875 41.921C0.875 39.2846 0.950324 36.6483 1.1763 34.1625C1.32695 31.6768 1.62824 29.1911 2.08019 26.8561C2.45681 24.521 2.98408 22.2613 3.662 20.1522C4.33992 18.0431 5.09317 16.0847 5.99706 14.2016C6.90096 12.3938 7.9555 10.6613 9.16069 9.15483C10.2906 7.72367 11.7217 6.36783 13.2282 5.23796Z" fill="black"/>
</svg>
