<svg width="55" height="83" viewBox="0 0 55 83" fill="none" xmlns="http://www.w3.org/2000/svg">
<path fill-rule="evenodd" clip-rule="evenodd" d="M12.764 5.23796C11.2576 4.10809 9.5251 3.12887 7.64199 2.37563C5.75888 1.62239 3.72511 1.09511 1.46538 0.869141H1.39007C1.23942 0.869141 1.08878 0.944465 1.01345 1.01979C0.938127 1.09511 0.862793 1.24576 0.862793 1.39641V8.55223C0.862793 8.70288 0.938127 8.77821 1.01345 8.85353C1.08878 8.92886 1.16412 9.00418 1.31477 9.00418C2.67061 9.30548 3.87577 9.75743 5.00564 10.36C6.1355 10.9626 7.19007 11.6405 8.09397 12.4691C8.99786 13.2977 9.90173 14.2769 10.655 15.4068C11.4082 16.5366 12.0861 17.7418 12.6887 19.0977C13.2913 20.4535 13.8186 21.96 14.1952 23.6171C14.6472 25.2743 14.9485 27.0067 15.2498 28.8898C15.5511 30.7729 15.7017 32.8067 15.8524 34.9911C16.003 37.1755 16.003 39.4353 16.003 41.8456C16.003 44.256 15.9277 46.5158 15.8524 48.7002C15.7017 50.8846 15.5511 52.9183 15.2498 54.8014C14.9485 56.6846 14.6472 58.4923 14.1952 60.0742C13.7433 61.7313 13.2913 63.2378 12.6887 64.5936C12.0861 65.9495 11.4082 67.1547 10.655 68.2845C9.90173 69.4144 9.07318 70.3183 8.09397 71.2222C7.19007 72.0508 6.1355 72.7287 5.00564 73.3313C3.87577 73.9339 2.67061 74.3858 1.31477 74.6871C1.16412 74.6871 1.08878 74.7624 1.01345 74.8378C0.938127 74.9131 0.862793 75.0637 0.862793 75.139V82.2949C0.862793 82.4455 0.938127 82.5962 1.01345 82.6715C1.08878 82.7468 1.23942 82.8221 1.39007 82.8221H1.46538C3.72511 82.5209 5.75888 82.0689 7.64199 81.3157C9.5251 80.5624 11.2576 79.6585 12.764 78.4533C14.2705 77.3235 15.7017 75.9676 16.9069 74.4611C18.1121 72.9546 19.1666 71.2975 20.0705 69.4144C20.9744 67.6066 21.803 65.5728 22.4056 63.4638C23.0835 61.3547 23.5355 59.0949 23.9874 56.7599C24.364 54.4248 24.6653 52.0144 24.8913 49.4534C25.042 46.9677 25.1926 44.3313 25.1926 41.695C25.1926 39.0586 25.1173 36.4223 24.8913 33.9366C24.7407 31.4509 24.4394 28.9652 23.9874 26.6301C23.6108 24.295 23.0835 22.0353 22.4056 19.9262C21.7277 17.8171 20.9744 15.8587 20.0705 13.9756C19.1666 12.1678 18.1121 10.4353 16.9069 8.92886C15.7017 7.72367 14.3459 6.36783 12.764 5.23796Z" fill="black"/>
<path d="M31.896 35.7444V31.2249C31.896 30.9989 31.9713 30.7729 32.122 30.6223L45.3037 17.4405C45.605 17.1392 45.831 16.8379 45.9817 16.7626C46.1323 16.6119 46.3583 16.3107 46.7349 15.8587C47.1115 15.4068 47.4129 14.9548 47.6388 14.5782C47.7895 14.2016 48.0154 13.7496 48.1661 13.2223C48.3167 12.6951 48.4674 12.1678 48.4674 11.5652C48.4674 10.9626 48.3167 10.36 48.1661 9.75743C47.9401 9.15483 47.6388 8.55223 47.1868 8.02496C46.7349 7.49769 46.2076 7.04575 45.4544 6.74445C44.7012 6.44315 43.9479 6.21718 43.044 6.21718C41.4622 6.21718 40.1817 6.74445 39.2025 7.87431C38.2233 9.00418 37.696 10.2094 37.696 11.5652C37.696 11.7159 37.6207 11.7912 37.47 11.7912H32.122C31.9713 11.7912 31.896 11.7159 31.896 11.5652C31.896 8.47691 32.9505 5.91588 35.0596 3.88212C37.0934 1.92368 39.8051 0.869141 43.044 0.869141C46.5089 0.869141 49.2206 1.92368 51.2544 3.95744C53.2881 5.9912 54.3427 8.55223 54.3427 11.7159C54.3427 12.6951 54.192 13.599 53.966 14.5782C53.7401 15.4821 53.4388 16.3107 53.1375 16.9132C52.8362 17.5158 52.4596 18.1938 51.857 18.8717C51.3297 19.5496 50.8778 20.0769 50.6518 20.3782C50.3505 20.6795 49.9739 21.0561 49.4466 21.5834L40.1064 30.2457C40.0311 30.321 40.031 30.3963 40.031 30.547C40.031 30.6976 40.1063 30.6976 40.257 30.6976H53.966C54.1167 30.6976 54.192 30.7729 54.192 30.9236V35.8197C54.192 35.9703 54.1167 36.0457 53.966 36.0457H32.0467C31.9713 35.9703 31.896 35.895 31.896 35.7444Z" fill="black"/>
</svg>
