<svg width="116" height="61" viewBox="0 0 116 61" fill="none" xmlns="http://www.w3.org/2000/svg">
<g clip-path="url(#clip0_514_85)">
<path fill-rule="evenodd" clip-rule="evenodd" d="M26.354 26.933V51.7747C26.354 51.919 26.4966 52.0632 26.6393 52.0632H51.2102C51.2815 52.0632 51.3172 52.0271 51.3528 51.9911L74.9608 28.1228C75.0678 28.0146 75.0678 27.8343 74.9608 27.7262L50.4256 2.84834C50.3186 2.74017 50.1403 2.74017 50.0333 2.84834L26.4253 26.7166C26.354 26.7887 26.354 26.8608 26.354 26.933ZM54.9547 17.8832L41.5102 31.4759L36.8029 26.7166L50.2473 13.124L54.9547 17.8832ZM46.6811 36.7399L60.1256 23.1472L64.8329 27.9064L51.3885 41.4991L46.6811 36.7399ZM33.6646 34.0358L44.1492 44.6359H33.6646V34.0358Z" fill="black"/>
<path fill-rule="evenodd" clip-rule="evenodd" d="M85.5169 3.20888C84.4114 2.37962 83.1632 1.65852 81.7724 1.1177C80.3816 0.576877 78.8838 0.180274 77.2434 0H77.1721C77.0651 0 76.9581 0.0360548 76.8868 0.108164C76.8154 0.180274 76.7798 0.288439 76.7798 0.396603V5.66061C76.7798 5.73272 76.8154 5.84088 76.8511 5.91299C76.8868 5.9851 76.9581 6.02116 77.0651 6.05721C78.0279 6.27354 78.9551 6.63409 79.7754 7.03069C80.5956 7.46335 81.3445 7.96812 82.022 8.58105C82.6996 9.19398 83.3059 9.91508 83.8765 10.7083C84.4114 11.5015 84.9106 12.4389 85.3386 13.4485C85.7665 14.458 86.1231 15.5757 86.4441 16.7655C86.765 17.9553 87.0147 19.2893 87.193 20.6594C87.407 22.0656 87.5496 23.5799 87.6209 25.1663C87.7279 26.7527 87.7636 28.4473 87.7636 30.25C87.7636 32.0167 87.7279 33.7113 87.6209 35.3337C87.5139 36.9201 87.3713 38.4344 87.193 39.8406C86.979 41.2467 86.7294 42.5447 86.4441 43.7345C86.1231 44.9243 85.7665 46.042 85.3386 47.0515C84.9106 48.0611 84.4114 48.9625 83.8765 49.7917C83.3415 50.5849 82.6996 51.306 82.022 51.9189C81.3445 52.5319 80.5956 53.0727 79.7754 53.4693C78.9551 53.902 78.0636 54.2265 77.0651 54.4428C76.9938 54.4788 76.9224 54.5149 76.8511 54.587C76.8154 54.6591 76.7798 54.7312 76.7798 54.8394V60.1034C76.7798 60.2116 76.8154 60.3197 76.8868 60.3918C76.9581 60.4639 77.0651 60.5 77.1721 60.5H77.2434C78.8838 60.2837 80.3816 59.9231 81.7724 59.3823C83.1632 58.8415 84.3757 58.1564 85.5169 57.2911C86.6224 56.4619 87.6209 55.4523 88.5125 54.3346C89.404 53.2169 90.1529 51.9911 90.8305 50.657C91.508 49.2869 92.0786 47.8448 92.5422 46.2583C93.0058 44.708 93.3981 43.0495 93.6834 41.3188C93.9687 39.5882 94.1827 37.7855 94.3253 35.9467C94.468 34.1079 94.5393 32.197 94.5393 30.2139C94.5393 28.267 94.468 26.3561 94.3253 24.4812C94.1827 22.6424 93.9687 20.8397 93.6834 19.1091C93.3981 17.3784 93.0058 15.7199 92.5422 14.1695C92.0786 12.6192 91.508 11.1409 90.8305 9.77086C90.1529 8.43683 89.404 7.17491 88.5125 6.09327C87.6566 5.04768 86.6581 4.03814 85.5169 3.20888Z" fill="black"/>
<path fill-rule="evenodd" clip-rule="evenodd" d="M9.0224 3.20888C10.1279 2.37962 11.3761 1.65852 12.7669 1.1177C14.1577 0.576877 15.6555 0.180274 17.2959 0H17.3672C17.4742 0 17.5812 0.0360548 17.6525 0.108164C17.7238 0.180274 17.7595 0.288439 17.7595 0.396603V5.66061C17.7595 5.73272 17.7238 5.84088 17.6882 5.91299C17.6525 5.9851 17.5812 6.02116 17.4742 6.05721C16.5113 6.27354 15.5841 6.63409 14.7639 7.03069C13.9437 7.46335 13.1948 7.96812 12.5172 8.58105C11.8397 9.19398 11.2334 9.91508 10.6628 10.7083C10.1279 11.5015 9.62865 12.4389 9.20071 13.4485C8.77277 14.458 8.41615 15.5757 8.0952 16.7655C7.77424 17.9553 7.52461 19.2893 7.3463 20.6594C7.13233 22.0656 6.98969 23.5799 6.91836 25.1663C6.81138 26.7527 6.77572 28.4473 6.77572 30.25C6.77572 32.0167 6.81138 33.7113 6.91836 35.3337C7.02535 36.9201 7.16799 38.4344 7.3463 39.8406C7.56027 41.2467 7.8099 42.5447 8.0952 43.7345C8.41615 44.9243 8.77277 46.042 9.20071 47.0515C9.62865 48.0611 10.1279 48.9625 10.6628 49.7917C11.1978 50.5849 11.8397 51.306 12.5172 51.9189C13.1948 52.5319 13.9437 53.0727 14.7639 53.4693C15.5841 53.902 16.4757 54.2265 17.4742 54.4428C17.5455 54.4788 17.6169 54.5149 17.6882 54.587C17.7238 54.6591 17.7595 54.7312 17.7595 54.8394V60.1034C17.7595 60.2116 17.7238 60.3197 17.6525 60.3918C17.5812 60.4639 17.4742 60.5 17.3672 60.5H17.2959C15.6555 60.2837 14.1577 59.9231 12.7669 59.3823C11.3761 58.8415 10.1636 58.1564 9.0224 57.2911C7.91689 56.4619 6.91836 55.4523 6.02682 54.3346C5.13528 53.2169 4.38638 51.9911 3.70881 50.657C3.03124 49.2869 2.46065 47.8448 1.99705 46.2583C1.53345 44.708 1.14117 43.0495 0.85588 41.3188C0.570587 39.5882 0.356617 37.7855 0.21397 35.9467C0.0713233 34.1079 0 32.197 0 30.25C0 28.303 0.0713233 26.3921 0.21397 24.5173C0.356617 22.6785 0.570587 20.8757 0.85588 19.1451C1.14117 17.4145 1.53345 15.756 1.99705 14.2056C2.46065 12.6552 3.03124 11.177 3.70881 9.80691C4.38638 8.47288 5.13528 7.21097 6.02682 6.12932C6.8827 5.04768 7.88123 4.03814 9.0224 3.20888Z" fill="black"/>
<path d="M99.4248 25.671V22.354C99.4248 22.1737 99.4961 21.9934 99.6031 21.8853L109.196 12.2586C109.446 12.0063 109.624 11.826 109.695 11.7539C109.802 11.6457 109.981 11.4294 110.266 11.1049C110.551 10.7443 110.765 10.4559 110.908 10.1675C111.051 9.91508 111.193 9.59058 111.336 9.15793C111.478 8.76132 111.55 8.36472 111.55 7.96812C111.55 7.53546 111.478 7.06675 111.3 6.63409C111.157 6.20143 110.908 5.76877 110.623 5.37217C110.302 4.97557 109.909 4.65107 109.374 4.39869C108.839 4.14631 108.269 4.03814 107.591 4.03814C106.45 4.03814 105.523 4.43474 104.774 5.26401C104.025 6.09327 103.669 6.99464 103.669 7.96812C103.669 8.07628 103.597 8.14839 103.49 8.14839H99.6031C99.4961 8.14839 99.4248 8.07628 99.4248 7.96812C99.4248 5.69666 100.209 3.82181 101.707 2.30751C103.241 0.757151 105.202 0 107.591 0C110.088 0 112.085 0.757152 113.582 2.27145C115.08 3.78576 115.829 5.66061 115.829 7.96812C115.829 8.68921 115.722 9.37426 115.544 10.0593C115.366 10.7443 115.152 11.3212 114.938 11.7539C114.724 12.2226 114.403 12.6913 114.046 13.1961C113.654 13.7008 113.369 14.0614 113.155 14.2777C112.941 14.494 112.655 14.7825 112.299 15.143L105.487 21.5247C105.452 21.5608 105.416 21.6329 105.416 21.7411C105.416 21.8492 105.487 21.8853 105.559 21.8853H115.58C115.687 21.8853 115.758 21.9574 115.758 22.0656V25.7071C115.758 25.8153 115.687 25.8874 115.58 25.8874H99.6031C99.4961 25.8513 99.4248 25.8153 99.4248 25.671Z" fill="black"/>
</g>
<defs>
<clipPath id="clip0_514_85">
<rect width="115.829" height="60.5" fill="white"/>
</clipPath>
</defs>
</svg>
