<svg width="118" height="61" viewBox="0 0 118 61" fill="none" xmlns="http://www.w3.org/2000/svg">
<g clip-path="url(#clip0_528_28)">
<path fill-rule="evenodd" clip-rule="evenodd" d="M86.4594 3.20888C85.3417 2.37962 84.0798 1.65852 82.6737 1.1177C81.2675 0.576877 79.7532 0.180274 78.0947 0H78.0226C77.9144 0 77.8063 0.0360548 77.7341 0.108164C77.662 0.180274 77.626 0.288439 77.626 0.396603V5.66061C77.626 5.73272 77.662 5.84088 77.6981 5.91299C77.7341 5.9851 77.8063 6.02116 77.9144 6.05721C78.8879 6.30959 79.8253 6.63409 80.6546 7.03069C81.4838 7.46335 82.241 7.96812 82.926 8.58105C83.6111 9.19398 84.224 9.91508 84.8009 10.7083C85.3417 11.5015 85.8465 12.4389 86.2791 13.4485C86.7118 14.458 87.0723 15.5757 87.3968 16.7655C87.7213 17.9553 87.9737 19.2893 88.154 20.6594C88.3703 22.0656 88.5145 23.5799 88.5866 25.1663C88.6948 26.7527 88.7309 28.4473 88.7309 30.25C88.7309 32.0167 88.6948 33.7113 88.5866 35.3337C88.4785 36.9201 88.3343 38.4344 88.154 39.8406C87.9377 41.2467 87.6853 42.5447 87.3968 43.7345C87.0723 44.9243 86.7118 46.042 86.2791 47.0515C85.8465 48.0611 85.3417 48.9625 84.8009 49.7917C84.2601 50.5849 83.6111 51.306 82.926 51.9189C82.241 52.5319 81.4838 53.0727 80.6546 53.4693C79.8253 53.902 78.924 54.2265 77.9144 54.4428C77.8423 54.4788 77.7702 54.5149 77.6981 54.587C77.662 54.6591 77.626 54.7312 77.626 54.8394V60.1034C77.626 60.2116 77.662 60.3197 77.7341 60.3918C77.8063 60.4639 77.9144 60.5 78.0226 60.5H78.0947C79.7532 60.2837 81.2675 59.9231 82.6737 59.3823C84.0798 58.8415 85.3057 58.1564 86.4594 57.2911C87.5771 56.4619 88.5866 55.4523 89.488 54.3346C90.3894 53.2169 91.1465 51.9911 91.8316 50.657C92.5166 49.2869 93.0935 47.8448 93.5622 46.2583C94.0309 44.708 94.4275 43.0495 94.716 41.3188C95.0044 39.5882 95.2207 37.7855 95.365 35.9467C95.5092 34.1079 95.5813 32.197 95.5813 30.2139C95.5813 28.267 95.5092 26.3561 95.365 24.4812C95.2207 22.6424 95.0044 20.8397 94.716 19.1091C94.4275 17.3784 94.0309 15.7199 93.5622 14.1695C93.0935 12.6192 92.5166 11.1409 91.8316 9.77086C91.1465 8.43683 90.3894 7.17491 89.488 6.09327C88.6227 5.04768 87.6132 4.03814 86.4594 3.20888Z" fill="black"/>
<path fill-rule="evenodd" clip-rule="evenodd" d="M9.12187 3.20888C10.2396 2.37962 11.5015 1.65852 12.9076 1.1177C14.3138 0.576877 15.8281 0.180274 17.4866 0H17.5587C17.6669 0 17.775 0.0360548 17.8471 0.108164C17.9192 0.180274 17.9553 0.288439 17.9553 0.396603V5.66061C17.9553 5.73272 17.9192 5.84088 17.8832 5.91299C17.8471 5.9851 17.775 6.02116 17.6669 6.05721C16.6934 6.30959 15.756 6.63409 14.9267 7.03069C14.0974 7.46335 13.3403 7.96812 12.6552 8.58105C11.9702 9.19398 11.3573 9.91508 10.7804 10.7083C10.2396 11.5015 9.7348 12.4389 9.30215 13.4485C8.86949 14.458 8.50894 15.5757 8.18445 16.7655C7.85995 17.9553 7.60757 19.2893 7.42729 20.6594C7.21097 22.0656 7.06675 23.5799 6.99464 25.1663C6.88647 26.7527 6.85042 28.4473 6.85042 30.25C6.85042 32.0167 6.88647 33.7113 6.99464 35.3337C7.1028 36.9201 7.24702 38.4344 7.42729 39.8406C7.64362 41.2467 7.89601 42.5447 8.18445 43.7345C8.50894 44.9243 8.86949 46.042 9.30215 47.0515C9.7348 48.0611 10.2396 48.9625 10.7804 49.7917C11.3212 50.5849 11.9702 51.306 12.6552 51.9189C13.3403 52.5319 14.0974 53.0727 14.9267 53.4693C15.756 53.902 16.6573 54.2265 17.6669 54.4428C17.739 54.4788 17.8111 54.5149 17.8832 54.587C17.9192 54.6591 17.9553 54.7312 17.9553 54.8394V60.1034C17.9553 60.2116 17.9192 60.3197 17.8471 60.3918C17.775 60.4639 17.6669 60.5 17.5587 60.5H17.4866C15.8281 60.2837 14.3138 59.9231 12.9076 59.3823C11.5015 58.8415 10.2756 58.1564 9.12187 57.2911C8.00417 56.4619 6.99464 55.4523 6.09327 54.3346C5.1919 53.2169 4.43474 51.9911 3.7497 50.657C3.06466 49.2869 2.48778 47.8448 2.01907 46.2583C1.55036 44.708 1.15375 43.0495 0.865316 41.3188C0.576877 39.5882 0.360548 37.7855 0.216329 35.9467C0.0721097 34.1079 0 32.197 0 30.25C0 28.303 0.0721097 26.3921 0.216329 24.5173C0.360548 22.6785 0.576877 20.8757 0.865316 19.1451C1.15375 17.4145 1.55036 15.756 2.01907 14.2056C2.48778 12.6552 3.06466 11.177 3.7497 9.80691C4.43474 8.47288 5.1919 7.21097 6.09327 6.12932C6.95858 5.04768 7.96812 4.03814 9.12187 3.20888Z" fill="black"/>
<path d="M100.521 25.671V22.354C100.521 22.1737 100.593 21.9934 100.701 21.8853L110.4 12.2586C110.652 12.0063 110.833 11.826 110.905 11.7539C111.013 11.6457 111.193 11.4294 111.482 11.1049C111.77 10.7443 111.986 10.4559 112.131 10.1675C112.275 9.91508 112.419 9.59058 112.563 9.15793C112.708 8.76132 112.78 8.36472 112.78 7.96812C112.78 7.53546 112.708 7.06675 112.527 6.63409C112.383 6.20143 112.131 5.76877 111.842 5.37217C111.518 4.97557 111.121 4.65107 110.58 4.39869C110.039 4.14631 109.463 4.03814 108.778 4.03814C107.624 4.03814 106.686 4.43474 105.929 5.26401C105.172 6.09327 104.812 6.99464 104.812 7.96812C104.812 8.07628 104.739 8.14839 104.631 8.14839H100.701C100.593 8.14839 100.521 8.07628 100.521 7.96812C100.521 5.69666 101.314 3.82181 102.829 2.30751C104.379 0.757151 106.362 0 108.778 0C111.301 0 113.32 0.757152 114.835 2.27145C116.349 3.78576 117.106 5.66061 117.106 7.96812C117.106 8.68921 116.998 9.37426 116.818 10.0593C116.638 10.7443 116.421 11.3212 116.205 11.7539C115.989 12.2226 115.664 12.6913 115.303 13.1961C114.907 13.7008 114.618 14.0614 114.402 14.2777C114.186 14.494 113.897 14.7825 113.537 15.143L106.65 21.5247C106.614 21.5608 106.578 21.6329 106.578 21.7411C106.578 21.8492 106.65 21.8853 106.722 21.8853H116.854C116.962 21.8853 117.034 21.9574 117.034 22.0656V25.7071C117.034 25.8153 116.962 25.8874 116.854 25.8874H100.701C100.593 25.8513 100.521 25.8153 100.521 25.671Z" fill="black"/>
<path d="M46.5828 6.92253C53.0366 6.92253 58.8775 9.51848 63.0959 13.7729C67.3143 17.9914 69.9463 23.8322 69.9463 30.2861C69.9463 36.7399 67.3503 42.5808 63.0959 46.7992C58.8775 51.0176 53.0366 53.6496 46.5828 53.6496C40.129 53.6496 34.2881 51.0536 30.0697 46.7992C25.8512 42.5808 23.2192 36.7399 23.2192 30.2861C23.2192 23.8322 25.8152 17.9914 30.0697 13.7729C34.2881 9.55453 40.129 6.92253 46.5828 6.92253ZM57.8319 19.0009C54.9475 16.1165 50.9454 14.3498 46.5467 14.3498C42.148 14.3498 38.1459 16.1165 35.2616 19.0009C32.3772 21.8853 30.6105 25.8874 30.6105 30.2861C30.6105 34.6847 32.3772 38.6868 35.2616 41.5712C38.1459 44.4556 42.148 46.2223 46.5467 46.2223C50.9454 46.2223 54.9475 44.4556 57.8319 41.5712C60.7163 38.6868 62.4829 34.6847 62.4829 30.2861C62.519 25.8513 60.7163 21.8853 57.8319 19.0009Z" fill="black"/>
<path d="M46.5831 20.1186C48.1334 20.1186 49.5756 20.4431 50.8736 21.056L67.6751 4.25446C67.7833 4.1463 67.9636 4.1463 68.0717 4.25446L70.3071 6.48986L72.9031 9.08581C73.0113 9.19397 73.0113 9.37425 72.9031 9.48241L55.9573 26.4282C56.426 27.618 56.7145 28.916 56.7145 30.25C56.7145 33.0623 55.5968 35.5861 53.758 37.4249C51.9192 39.2637 49.3953 40.3814 46.5831 40.3814C43.7708 40.3814 41.247 39.2276 39.4082 37.4249C37.5694 35.5861 36.4517 33.0623 36.4517 30.25C36.4517 27.4377 37.6054 24.9139 39.4082 23.0751C41.247 21.2723 43.7708 20.1186 46.5831 20.1186ZM48.494 28.3391C47.9892 27.8343 47.3042 27.5459 46.547 27.5459C45.7899 27.5459 45.1048 27.8704 44.6 28.3391C44.0953 28.8439 43.8068 29.5289 43.8068 30.286C43.8068 31.0432 44.1313 31.7282 44.6 32.233C45.1048 32.7378 45.7899 33.0262 46.547 33.0262C47.3042 33.0262 47.9892 32.7017 48.494 32.233C48.9987 31.7282 49.2872 31.0432 49.2872 30.286C49.3232 29.4928 48.9987 28.8078 48.494 28.3391Z" fill="black"/>
</g>
<defs>
<clipPath id="clip0_528_28">
<rect width="117.106" height="60.5" fill="white"/>
</clipPath>
</defs>
</svg>
