<svg width="118" height="61" viewBox="0 0 118 61" fill="none" xmlns="http://www.w3.org/2000/svg">
<g clip-path="url(#clip0_514_130)">
<path fill-rule="evenodd" clip-rule="evenodd" d="M86.4594 3.6332C85.3417 2.80393 84.0798 2.08284 82.6737 1.54202C81.2675 1.00119 79.7532 0.604591 78.0947 0.424316H78.0226C77.9144 0.424316 77.8063 0.460371 77.7341 0.532481C77.662 0.604591 77.626 0.712755 77.626 0.820919V6.08492C77.626 6.15703 77.662 6.2652 77.6981 6.33731C77.7341 6.40942 77.8063 6.44547 77.9144 6.48153C78.8879 6.69786 79.8253 7.0584 80.6546 7.45501C81.4838 7.88767 82.241 8.39243 82.926 9.00536C83.6111 9.6183 84.224 10.3394 84.8009 11.1326C85.3417 11.9258 85.8465 12.8632 86.2791 13.8728C86.7118 14.8823 87.0723 16 87.3968 17.1898C87.7213 18.3796 87.9737 19.7136 88.154 21.0837C88.3703 22.4899 88.5145 24.0042 88.5866 25.5906C88.6948 27.177 88.7309 28.8716 88.7309 30.6743C88.7309 32.441 88.6948 34.1356 88.5866 35.758C88.4785 37.3445 88.3343 38.8588 88.154 40.2649C87.9377 41.671 87.6853 42.969 87.3968 44.1588C87.0723 45.3486 86.7118 46.4663 86.2791 47.4759C85.8465 48.4854 85.3417 49.3868 84.8009 50.216C84.2601 51.0092 83.6111 51.7303 82.926 52.3433C82.241 52.9562 81.4838 53.497 80.6546 53.8936C79.8253 54.3263 78.924 54.6508 77.9144 54.8671C77.8423 54.9032 77.7702 54.9392 77.6981 55.0113C77.662 55.0834 77.626 55.1555 77.626 55.2637V60.5277C77.626 60.6359 77.662 60.744 77.7341 60.8162C77.8063 60.8883 77.9144 60.9243 78.0226 60.9243H78.0947C79.7532 60.708 81.2675 60.3474 82.6737 59.8066C84.0798 59.2658 85.3057 58.5807 86.4594 57.7154C87.5771 56.8862 88.5866 55.8766 89.488 54.7589C90.3894 53.6412 91.1465 52.4154 91.8316 51.0813C92.5166 49.7113 93.0935 48.2691 93.5622 46.6827C94.0309 45.1323 94.4275 43.4738 94.716 41.7431C95.0044 40.0125 95.2207 38.2098 95.365 36.371C95.5092 34.5322 95.5813 32.6213 95.5813 30.6383C95.5813 28.6913 95.5092 26.7804 95.365 24.9055C95.2207 23.0667 95.0044 21.264 94.716 19.5334C94.4275 17.8027 94.0309 16.1442 93.5622 14.5939C93.0935 13.0435 92.5166 11.5653 91.8316 10.1952C91.1465 8.86115 90.3894 7.59923 89.488 6.51758C88.6227 5.47199 87.6132 4.46246 86.4594 3.6332Z" fill="black"/>
<path fill-rule="evenodd" clip-rule="evenodd" d="M9.12187 3.6332C10.2396 2.80393 11.5015 2.08284 12.9076 1.54202C14.3138 1.00119 15.8281 0.604591 17.4866 0.424316H17.5587C17.6669 0.424316 17.775 0.460371 17.8471 0.532481C17.9192 0.604591 17.9553 0.712755 17.9553 0.820919V6.08492C17.9553 6.15703 17.9192 6.2652 17.8832 6.33731C17.8471 6.40942 17.775 6.44547 17.6669 6.48153C16.6934 6.69786 15.756 7.0584 14.9267 7.45501C14.0974 7.88767 13.3403 8.39243 12.6552 9.00536C11.9702 9.6183 11.3573 10.3394 10.7804 11.1326C10.2396 11.9258 9.7348 12.8632 9.30215 13.8728C8.86949 14.8823 8.50894 16 8.18445 17.1898C7.85995 18.3796 7.60757 19.7136 7.42729 21.0837C7.21097 22.4899 7.06675 24.0042 6.99464 25.5906C6.88647 27.177 6.85042 28.8716 6.85042 30.6743C6.85042 32.441 6.88647 34.1356 6.99464 35.758C7.1028 37.3445 7.24702 38.8588 7.42729 40.2649C7.64362 41.671 7.89601 42.969 8.18445 44.1588C8.50894 45.3486 8.86949 46.4663 9.30215 47.4759C9.7348 48.4854 10.2396 49.3868 10.7804 50.216C11.3212 51.0092 11.9702 51.7303 12.6552 52.3433C13.3403 52.9562 14.0974 53.497 14.9267 53.8936C15.756 54.3263 16.6573 54.6508 17.6669 54.8671C17.739 54.9032 17.8111 54.9392 17.8832 55.0113C17.9192 55.0834 17.9553 55.1555 17.9553 55.2637V60.5277C17.9553 60.6359 17.9192 60.744 17.8471 60.8162C17.775 60.8883 17.6669 60.9243 17.5587 60.9243H17.4866C15.8281 60.708 14.3138 60.3474 12.9076 59.8066C11.5015 59.2658 10.2756 58.5807 9.12187 57.7154C8.00417 56.8862 6.99464 55.8766 6.09327 54.7589C5.1919 53.6412 4.43474 52.4154 3.7497 51.0813C3.06466 49.7113 2.48778 48.2691 2.01907 46.6827C1.55036 45.1323 1.15375 43.4738 0.865316 41.7431C0.576877 40.0125 0.360548 38.2098 0.216329 36.371C0.0721097 34.5322 0 32.6213 0 30.6743C0 28.7274 0.0721097 26.8164 0.216329 24.9416C0.360548 23.1028 0.576877 21.3001 0.865316 19.5694C1.15375 17.8388 1.55036 16.1803 2.01907 14.6299C2.48778 13.0796 3.06466 11.6013 3.7497 10.2312C4.43474 8.8972 5.1919 7.63528 6.09327 6.55364C6.95858 5.47199 7.96812 4.46246 9.12187 3.6332Z" fill="black"/>
<path d="M100.521 26.0954V22.7783C100.521 22.598 100.593 22.4178 100.701 22.3096L110.4 12.683C110.652 12.4306 110.833 12.2503 110.905 12.1782C111.013 12.07 111.193 11.8537 111.482 11.5292C111.77 11.1687 111.986 10.8802 112.131 10.5918C112.275 10.3394 112.419 10.0149 112.563 9.58224C112.708 9.18564 112.78 8.78904 112.78 8.39243C112.78 7.95978 112.708 7.49106 112.527 7.0584C112.383 6.62575 112.131 6.19309 111.842 5.79649C111.518 5.39988 111.121 5.07539 110.58 4.82301C110.039 4.57062 109.463 4.46246 108.778 4.46246C107.624 4.46246 106.686 4.85906 105.929 5.68832C105.172 6.51758 104.812 7.41895 104.812 8.39243C104.812 8.5006 104.739 8.57271 104.631 8.57271H100.701C100.593 8.57271 100.521 8.5006 100.521 8.39243C100.521 6.12098 101.314 4.24613 102.829 2.73183C104.379 1.18147 106.362 0.424316 108.778 0.424316C111.301 0.424316 113.32 1.18147 114.835 2.69577C116.349 4.21007 117.106 6.08492 117.106 8.39243C117.106 9.11353 116.998 9.79857 116.818 10.4836C116.638 11.1687 116.421 11.7455 116.205 12.1782C115.989 12.6469 115.664 13.1156 115.303 13.6204C114.907 14.1252 114.618 14.4857 114.402 14.702C114.186 14.9184 113.897 15.2068 113.537 15.5673L106.65 21.949C106.614 21.9851 106.578 22.0572 106.578 22.1654C106.578 22.2735 106.65 22.3096 106.722 22.3096H116.854C116.962 22.3096 117.034 22.3817 117.034 22.4899V26.1314C117.034 26.2396 116.962 26.3117 116.854 26.3117H100.701C100.593 26.2756 100.521 26.2396 100.521 26.0954Z" fill="black"/>
<path fill-rule="evenodd" clip-rule="evenodd" d="M23.5077 8.8972C23.3635 8.8972 23.2192 9.04142 23.2192 9.18564V52.1991C23.2192 52.3433 23.3635 52.4875 23.5077 52.4875H53.4692C53.6135 52.4875 53.7577 52.3433 53.7577 52.1991V41.1663L65.0068 52.4154C65.0068 52.4154 65.0068 52.4154 65.0428 52.4154H71.8572C72.0014 52.4154 72.1456 52.2712 72.1456 52.1269V9.14958C72.1456 9.00536 72.0014 8.86115 71.8572 8.86115H65.0068C64.9707 8.86115 64.9347 8.86115 64.8986 8.8972C64.8986 8.8972 64.8986 8.8972 64.8626 8.8972C64.8626 8.8972 64.8626 8.8972 64.8265 8.8972L53.5774 20.1463V9.14958C53.5774 9.00536 53.4332 8.86115 53.289 8.86115L23.5077 8.8972ZM30.6465 45.0602V16.2884H46.3664V45.0602H30.6465ZM53.7937 30.6743L64.9347 19.5334V41.8513L53.7937 30.6743Z" fill="black"/>
</g>
<defs>
<clipPath id="clip0_514_130">
<rect width="117.106" height="60.5" fill="white" transform="translate(0 0.424316)"/>
</clipPath>
</defs>
</svg>
