<svg width="118" height="61" viewBox="0 0 118 61" fill="none" xmlns="http://www.w3.org/2000/svg">
<g clip-path="url(#clip0_552_120)">
<path fill-rule="evenodd" clip-rule="evenodd" d="M86.4594 3.22402C85.3417 2.39476 84.0798 1.67366 82.6737 1.13284C81.2675 0.592014 79.7532 0.195411 78.0947 0.0151367H78.0226C77.9144 0.0151367 77.8063 0.0511915 77.7341 0.123301C77.662 0.195411 77.626 0.303575 77.626 0.41174V5.67574C77.626 5.74785 77.662 5.85602 77.6981 5.92813C77.7341 6.00024 77.8063 6.03629 77.9144 6.07235C78.8879 6.28868 79.8253 6.64922 80.6546 7.04583C81.4838 7.47849 82.241 7.98325 82.926 8.59618C83.6111 9.20912 84.224 9.93021 84.8009 10.7234C85.3417 11.5166 85.8465 12.4541 86.2791 13.4636C86.7118 14.4731 87.0723 15.5908 87.3968 16.7806C87.7213 17.9704 87.9737 19.3045 88.154 20.6746C88.3703 22.0807 88.5145 23.595 88.5866 25.1814C88.6948 26.7678 88.7309 28.4624 88.7309 30.2651C88.7309 32.0318 88.6948 33.7264 88.5866 35.3489C88.4785 36.9353 88.3343 38.4496 88.154 39.8557C87.9377 41.2619 87.6853 42.5598 87.3968 43.7496C87.0723 44.9394 86.7118 46.0571 86.2791 47.0667C85.8465 48.0762 85.3417 48.9776 84.8009 49.8069C84.2601 50.6001 83.6111 51.3212 82.926 51.9341C82.241 52.547 81.4838 53.0878 80.6546 53.4844C79.8253 53.9171 78.924 54.2416 77.9144 54.4579C77.8423 54.494 77.7702 54.53 77.6981 54.6021C77.662 54.6743 77.626 54.7464 77.626 54.8545V60.1185C77.626 60.2267 77.662 60.3349 77.7341 60.407C77.8063 60.4791 77.9144 60.5151 78.0226 60.5151H78.0947C79.7532 60.2988 81.2675 59.9383 82.6737 59.3974C84.0798 58.8566 85.3057 58.1716 86.4594 57.3063C87.5771 56.477 88.5866 55.4675 89.488 54.3498C90.3894 53.2321 91.1465 52.0062 91.8316 50.6722C92.5166 49.3021 93.0935 47.8599 93.5622 46.2735C94.0309 44.7231 94.4275 43.0646 94.716 41.334C95.0044 39.6033 95.2207 37.8006 95.365 35.9618C95.5092 34.123 95.5813 32.2121 95.5813 30.2291C95.5813 28.2821 95.5092 26.3712 95.365 24.4964C95.2207 22.6576 95.0044 20.8548 94.716 19.1242C94.4275 17.3936 94.0309 15.735 93.5622 14.1847C93.0935 12.6343 92.5166 11.1561 91.8316 9.78599C91.1465 8.45197 90.3894 7.19005 89.488 6.1084C88.6227 5.06281 87.6132 4.05328 86.4594 3.22402Z" fill="black"/>
<path fill-rule="evenodd" clip-rule="evenodd" d="M9.12187 3.22402C10.2396 2.39476 11.5015 1.67366 12.9076 1.13284C14.3138 0.592014 15.8281 0.195411 17.4866 0.0151367H17.5587C17.6669 0.0151367 17.775 0.0511915 17.8471 0.123301C17.9192 0.195411 17.9553 0.303575 17.9553 0.41174V5.67574C17.9553 5.74785 17.9192 5.85602 17.8832 5.92813C17.8471 6.00024 17.775 6.03629 17.6669 6.07235C16.6934 6.28868 15.756 6.64922 14.9267 7.04583C14.0974 7.47849 13.3403 7.98325 12.6552 8.59618C11.9702 9.20912 11.3573 9.93021 10.7804 10.7234C10.2396 11.5166 9.7348 12.4541 9.30215 13.4636C8.86949 14.4731 8.50894 15.5908 8.18445 16.7806C7.85995 17.9704 7.60757 19.3045 7.42729 20.6746C7.21097 22.0807 7.06675 23.595 6.99464 25.1814C6.88647 26.7678 6.85042 28.4624 6.85042 30.2651C6.85042 32.0318 6.88647 33.7264 6.99464 35.3489C7.1028 36.9353 7.24702 38.4496 7.42729 39.8557C7.64362 41.2619 7.89601 42.5598 8.18445 43.7496C8.50894 44.9394 8.86949 46.0571 9.30215 47.0667C9.7348 48.0762 10.2396 48.9776 10.7804 49.8069C11.3212 50.6001 11.9702 51.3212 12.6552 51.9341C13.3403 52.547 14.0974 53.0878 14.9267 53.4844C15.756 53.9171 16.6573 54.2416 17.6669 54.4579C17.739 54.494 17.8111 54.53 17.8832 54.6021C17.9192 54.6743 17.9553 54.7464 17.9553 54.8545V60.1185C17.9553 60.2267 17.9192 60.3349 17.8471 60.407C17.775 60.4791 17.6669 60.5151 17.5587 60.5151H17.4866C15.8281 60.2988 14.3138 59.9383 12.9076 59.3974C11.5015 58.8566 10.2756 58.1716 9.12187 57.3063C8.00417 56.477 6.99464 55.4675 6.09327 54.3498C5.1919 53.2321 4.43474 52.0062 3.7497 50.6722C3.06466 49.3021 2.48778 47.8599 2.01907 46.2735C1.55036 44.7231 1.15375 43.0646 0.865316 41.334C0.576877 39.6033 0.360548 37.8006 0.216329 35.9618C0.0721097 34.123 0 32.2121 0 30.2651C0 28.3182 0.0721097 26.4073 0.216329 24.5324C0.360548 22.6936 0.576877 20.8909 0.865316 19.1602C1.15375 17.4296 1.55036 15.7711 2.01907 14.2207C2.48778 12.6704 3.06466 11.1921 3.7497 9.82205C4.43474 8.48802 5.1919 7.2261 6.09327 6.14446C6.95858 5.06281 7.96812 4.05328 9.12187 3.22402Z" fill="black"/>
<path d="M100.521 25.6862V22.3691C100.521 22.1889 100.593 22.0086 100.701 21.9004L110.4 12.2738C110.652 12.0214 110.833 11.8411 110.905 11.769C111.013 11.6608 111.193 11.4445 111.482 11.12C111.77 10.7595 111.986 10.471 112.131 10.1826C112.275 9.93021 112.419 9.60572 112.563 9.17306C112.708 8.77646 112.78 8.37986 112.78 7.98325C112.78 7.5506 112.708 7.08188 112.527 6.64923C112.383 6.21657 112.131 5.78391 111.842 5.38731C111.518 4.9907 111.121 4.66621 110.58 4.41383C110.039 4.16144 109.463 4.05328 108.778 4.05328C107.624 4.05328 106.686 4.44988 105.929 5.27914C105.172 6.1084 104.812 7.00977 104.812 7.98325C104.812 8.09142 104.739 8.16353 104.631 8.16353H100.701C100.593 8.16353 100.521 8.09142 100.521 7.98325C100.521 5.7118 101.314 3.83695 102.829 2.32265C104.379 0.772288 106.362 0.0151367 108.778 0.0151367C111.301 0.0151367 113.32 0.772288 114.835 2.28659C116.349 3.80089 117.106 5.67575 117.106 7.98325C117.106 8.70435 116.998 9.38939 116.818 10.0744C116.638 10.7595 116.421 11.3364 116.205 11.769C115.989 12.2377 115.664 12.7064 115.303 13.2112C114.907 13.716 114.618 14.0765 114.402 14.2928C114.186 14.5092 113.897 14.7976 113.537 15.1582L106.65 21.5399C106.614 21.5759 106.578 21.648 106.578 21.7562C106.578 21.8644 106.65 21.9004 106.722 21.9004H116.854C116.962 21.9004 117.034 21.9725 117.034 22.0807V25.7222C117.034 25.8304 116.962 25.9025 116.854 25.9025H100.701C100.593 25.8664 100.521 25.8304 100.521 25.6862Z" fill="black"/>
<path fill-rule="evenodd" clip-rule="evenodd" d="M24.4813 8.48802C24.3371 8.48802 24.1929 8.63224 24.1929 8.77646V40.036C24.1929 40.1802 24.3371 40.3244 24.4813 40.3244H44.0591V44.651H29.565C29.4208 44.651 29.2766 44.7952 29.2766 44.9394V51.7899C29.2766 51.9341 29.4208 52.0783 29.565 52.0783H65.9804C66.1246 52.0783 66.2689 51.9341 66.2689 51.7899V44.9394C66.2689 44.7952 66.1246 44.651 65.9804 44.651H51.4864V40.3244H71.0641C71.2084 40.3244 71.3526 40.1802 71.3526 40.036V8.7404C71.3526 8.59619 71.2084 8.45197 71.0641 8.45197L24.4813 8.48802ZM31.6202 32.9332V15.8793H63.9613V32.9332H31.6202Z" fill="black"/>
</g>
<defs>
<clipPath id="clip0_552_120">
<rect width="117.106" height="60.5" fill="white" transform="translate(0 0.0151367)"/>
</clipPath>
</defs>
</svg>
