<svg width="308" height="53" fill="none" xmlns="http://www.w3.org/2000/svg"><g clip-path="url(#clip0_489_52)" fill="#000"><path fill-rule="evenodd" clip-rule="evenodd" d="M281.034 2.78a14.31 14.31 0 00-3.261-1.82 14.312 14.312 0 00-3.931-.96h-.048a.367.367 0 00-.24.096.366.366 0 00-.096.24V4.89c0 .095.048.143.096.191.048.048.096.096.192.096.863.192 1.63.48 2.349.863.719.384 1.391.815 1.966 1.343a10.37 10.37 0 011.63 1.87 15.74 15.74 0 012.254 5.226c.287 1.055.479 2.157.671 3.356.192 1.199.287 2.493.383 3.884.096 1.39.096 2.829.096 4.363 0 1.534-.048 2.972-.096 4.363-.096 1.39-.191 2.685-.383 3.884-.192 1.198-.384 2.349-.671 3.356-.288 1.055-.576 2.014-.959 2.877-.384.863-.816 1.63-1.295 2.349-.479.72-1.007 1.294-1.63 1.87-.575.527-1.247.959-1.966 1.342a9.128 9.128 0 01-2.349.863c-.096 0-.144.048-.192.096a.364.364 0 00-.096.192v4.555c0 .096.048.192.096.24a.367.367 0 00.24.096h.048c1.438-.192 2.733-.48 3.931-.96 1.199-.479 2.302-1.054 3.261-1.821a14.74 14.74 0 002.637-2.541 16.565 16.565 0 002.013-3.213 22.22 22.22 0 001.487-3.788c.431-1.342.719-2.78 1.007-4.267.239-1.486.431-3.02.575-4.65.096-1.583.192-3.261.192-4.94 0-1.677-.048-3.355-.192-4.938a36.395 36.395 0 00-.575-4.65 29.302 29.302 0 00-1.007-4.268 29.607 29.607 0 00-1.487-3.787c-.575-1.151-1.246-2.254-2.013-3.213-.768-.767-1.631-1.63-2.637-2.35zm-272.671 0a14.311 14.311 0 013.26-1.82A14.319 14.319 0 0115.556 0h.048c.096 0 .192.048.24.096a.366.366 0 01.096.24V4.89c0 .095-.048.143-.096.191-.048.048-.096.096-.192.096-.863.192-1.63.48-2.35.863-.719.384-1.39.815-1.965 1.343-.575.527-1.15 1.15-1.63 1.87-.48.719-.911 1.486-1.295 2.349a15.57 15.57 0 00-.959 2.877c-.287 1.055-.48 2.157-.671 3.356-.192 1.199-.288 2.493-.384 3.884-.096 1.39-.096 2.829-.096 4.363 0 1.534.048 2.972.096 4.363.096 1.39.192 2.685.384 3.884.192 1.198.384 2.349.671 3.356.288 1.055.576 2.014.96 2.877.383.863.814 1.63 1.294 2.349.48.72 1.007 1.294 1.63 1.87.575.527 1.246.959 1.966 1.342a9.083 9.083 0 002.349.863c.096 0 .144.048.192.096a.363.363 0 01.096.192v4.555a.366.366 0 01-.096.24.366.366 0 01-.24.096h-.048c-1.438-.192-2.733-.48-3.931-.96-1.2-.479-2.302-1.054-3.26-1.821a14.682 14.682 0 01-2.638-2.541 16.578 16.578 0 01-2.014-3.213 22.237 22.237 0 01-1.486-3.788c-.431-1.342-.72-2.78-1.007-4.267a64.872 64.872 0 01-.575-4.65A75.44 75.44 0 01.5 26.13c0-1.678.048-3.357.192-4.939a36.25 36.25 0 01.575-4.65 29.2 29.2 0 011.007-4.268A29.805 29.805 0 013.76 8.485c.576-1.15 1.247-2.253 2.014-3.212.72-.91 1.63-1.774 2.59-2.493z"/><path d="M26.295 44.686L18.959 7.67c0-.048-.048-.096-.048-.144 0-.143.096-.24.288-.24h6.52c.192 0 .288.097.288.288l5.514 31.261c.048.144.144.24.24.24.144 0 .24-.096.287-.24l6.185-31.309c0-.191.144-.287.288-.287H48.83c.191 0 .287.096.287.287l6.233 31.31c.048.191.144.287.288.287s.24-.096.288-.288L61.39 7.527c0-.191.144-.287.336-.287h6.52c.193 0 .288.096.288.24 0 .047 0 .095-.047.143L61.152 44.59c-.048.192-.192.24-.336.24H50.508c-.096 0-.192-.096-.24-.24l-6.233-31.165c-.048-.192-.144-.288-.288-.288s-.24.096-.287.288l-6.233 31.26c-.048.193-.144.24-.24.24H26.63a.36.36 0 01-.335-.24zm45.357 0V7.576c0-.193.096-.288.24-.288h26.083c.192 0 .288.095.288.287v5.322c0 .192-.096.288-.288.288H78.269c-.144 0-.24.096-.288.288v9.205c0 .192.096.24.288.24h17.644c.192 0 .288.096.288.288v5.322c0 .144-.096.24-.288.288H78.365c-.192 0-.288.095-.288.287v9.733c0 .144.096.24.288.288H98.07c.192 0 .287.096.287.24v5.37c0 .191-.096.24-.287.24H71.94c-.192-.049-.288-.144-.288-.288zm31.597 0V7.576c0-.193.096-.288.24-.288h16.733c2.014 0 3.836.527 5.562 1.534 1.726 1.007 3.116 2.445 4.123 4.22 1.055 1.773 1.534 3.739 1.534 5.849 0 2.253-.575 4.267-1.63 6.04-1.055 1.775-2.445 3.165-4.171 4.124-.048.048-.048.096 0 .192l6.808 15.343a.477.477 0 01.048.192c0 .143-.096.191-.287.191h-6.138c-.047 0-.143-.048-.239-.143l-6.185-14c-.096-.193-.192-.24-.288-.24h-9.445c-.144 0-.192.047-.192.191v13.953c0 .191-.096.24-.288.24h-5.849c-.288-.049-.336-.144-.336-.288zm6.377-31.261v10.98c0 .191.096.287.288.287h9.972c1.391-.048 2.637-.671 3.644-1.774 1.055-1.103 1.535-2.445 1.535-3.931 0-1.535-.528-2.877-1.631-4.028-1.102-1.15-2.349-1.678-3.787-1.678h-9.829c-.096-.096-.192-.048-.192.144zm26.37 31.261V7.576c0-.193.096-.288.24-.288h17.788c2.925 0 5.37 1.054 7.288 3.212 1.918 2.158 2.876 4.747 2.876 7.815 0 1.487-.431 2.925-1.246 4.315-.815 1.39-1.774 2.398-2.925 3.021-.144.048-.192.144-.192.24s.048.192.192.287c1.391.672 2.589 1.726 3.596 3.165 1.007 1.438 1.486 2.973 1.486 4.603 0 3.308-1.006 5.945-3.068 7.959-2.062 2.014-4.699 3.02-8.007 3.02h-17.788c-.144 0-.24-.095-.24-.24zm6.425-15.63v9.732c0 .192.096.288.288.288h10.452c1.438 0 2.685-.527 3.836-1.582 1.15-1.055 1.726-2.254 1.726-3.548 0-1.343-.528-2.493-1.535-3.548-1.054-1.055-2.253-1.582-3.596-1.582h-10.883c-.24 0-.288.095-.288.24zm0-15.631v9.253c0 .192.048.24.192.24h10.5c1.199-.048 2.301-.527 3.308-1.39.959-.863 1.439-1.918 1.439-3.165 0-1.39-.384-2.589-1.199-3.596-.767-1.007-1.822-1.534-3.165-1.534h-10.883c-.144-.048-.192 0-.192.192zm26.274 18.459V7.575c0-.192.096-.287.288-.287h5.897c.192 0 .24.095.24.287v24.309c0 2.014.719 3.692 2.11 5.082 1.39 1.39 3.116 2.11 5.13 2.11 1.966 0 3.692-.671 5.082-2.11 1.391-1.39 2.11-3.068 2.11-5.082V7.575c0-.192.096-.287.24-.287h5.897c.192 0 .288.095.288.287v24.309c0 2.445-.624 4.747-1.822 6.808a13.552 13.552 0 01-4.939 4.939c-2.109 1.199-4.363 1.822-6.856 1.822-1.87 0-3.644-.336-5.322-1.055a14.384 14.384 0 01-4.363-2.877c-1.199-1.198-2.158-2.637-2.877-4.315-.719-1.726-1.103-3.452-1.103-5.322zm32.364 12.802V7.576c0-.193.048-.288.192-.288h10.692c.144 0 .24.048.288.143l13.041 31.31c.048.095.096.191.192.191.096.048.192.048.239 0 .048-.048.096-.096.096-.192V7.575c0-.192.096-.287.288-.287h5.897c.144 0 .192.095.192.287v37.11c0 .192-.048.24-.192.24h-10.692c-.191 0-.287-.047-.287-.143l-13.042-31.31c-.048-.095-.096-.191-.191-.191-.096-.048-.144-.048-.24 0-.048.048-.096.096-.096.192v31.213c0 .191-.096.24-.24.24h-5.945c-.144 0-.192-.096-.192-.24zM236.3 26.13c0-3.787.671-7.095 1.966-10.02 1.342-2.877 3.26-5.178 5.849-6.857 2.589-1.678 5.61-2.493 9.11-2.493 2.253 0 4.267.288 6.041.815 1.774.528 3.308 1.295 4.555 2.302 1.247 1.007 2.253 2.11 3.069 3.356.815 1.247 1.438 2.685 1.869 4.267.048.24 0 .336-.239.384h-6.329c-.096 0-.192 0-.24-.048a.364.364 0 01-.192-.096c-.048-.048-.096-.048-.096-.096l-.096-.096-.047-.096c-.816-1.582-1.918-2.78-3.405-3.596-1.486-.815-3.116-1.198-4.938-1.198-3.165 0-5.706 1.198-7.528 3.644-1.822 2.445-2.733 5.705-2.733 9.78 0 4.22.863 7.48 2.589 9.877 1.727 2.35 4.268 3.549 7.624 3.549 6.569 0 10.069-3.26 10.404-9.734v-.527c0-.144-.048-.192-.191-.192h-9.973c-.144 0-.192-.096-.192-.287v-5.274c0-.192.048-.288.192-.288h15.822c.192 0 .288.096.288.288v21.24c0 .143-.096.191-.288.191h-4.843c-.143 0-.239-.047-.287-.191l-.528-2.781c-.048-.24-.239-.288-.527-.096-1.247 1.055-2.637 1.87-4.219 2.589-1.535.72-3.405 1.055-5.61 1.055-3.5 0-6.521-.815-9.11-2.445-2.589-1.63-4.507-3.932-5.849-6.809-1.247-2.972-1.918-6.329-1.918-10.116zm56.912-3.93v-2.878c0-.143.048-.287.144-.383l8.39-8.39c.192-.193.336-.384.432-.432.096-.096.24-.288.479-.576.24-.287.432-.575.576-.815.096-.24.239-.527.335-.863.096-.335.192-.671.192-1.055 0-.383-.096-.767-.192-1.15a3.617 3.617 0 00-.623-1.103c-.288-.336-.623-.623-1.103-.815-.479-.192-.959-.336-1.534-.336-1.007 0-1.822.336-2.445 1.055-.624.72-.959 1.486-.959 2.35 0 .095-.048.143-.144.143h-3.404c-.096 0-.144-.048-.144-.144 0-1.965.671-3.596 2.014-4.89C296.52.67 298.246 0 300.308 0c2.205 0 3.932.671 5.226 1.966 1.295 1.294 1.966 2.925 1.966 4.938 0 .624-.096 1.199-.24 1.822a7.558 7.558 0 01-.527 1.487 5.533 5.533 0 01-.815 1.246c-.336.432-.624.767-.767.96-.192.19-.432.43-.768.766l-5.945 5.514c-.048.048-.048.096-.048.192s.048.096.144.096h8.726c.096 0 .144.048.144.144v3.116c0 .096-.048.144-.144.144h-13.952c-.048-.048-.096-.096-.096-.192z"/></g><defs><clipPath id="clip0_489_52"><path fill="#fff" transform="translate(.5)" d="M0 0h307v52.261H0z"/></clipPath></defs></svg>